<?xml version="1.0" standalone="no"?>
<!DOCTYPE svg PUBLIC "-//W3C//DTD SVG 20010904//EN"
 "http://www.w3.org/TR/2001/REC-SVG-20010904/DTD/svg10.dtd">
<svg version="1.0" xmlns="http://www.w3.org/2000/svg"
 width="1200.000000pt" height="628.000000pt" viewBox="0 0 1200.000000 628.000000"
 preserveAspectRatio="xMidYMid meet">
<metadata>
Created by potrace 1.16, written by Peter Selinger 2001-2019
</metadata>
<g transform="translate(0.000000,628.000000) scale(0.100000,-0.100000)"
fill="#000000" stroke="none">
<path d="M5151 4675 c-75 -21 -148 -65 -202 -122 -104 -109 -130 -185 -194
-568 l-41 -250 -91 -3 c-91 -3 -92 -3 -97 -30 -7 -35 -56 -328 -56 -336 0 -3
41 -6 90 -6 70 0 90 -3 90 -14 0 -7 -43 -282 -95 -610 -52 -328 -95 -599 -95
-602 0 -2 98 -3 218 -2 l217 3 92 600 c51 330 95 606 98 613 3 8 35 12 114 12
l109 0 6 28 c3 15 14 88 26 162 11 74 23 145 25 158 5 22 4 22 -105 22 -130 0
-121 -19 -85 179 48 268 85 321 213 308 l58 -6 32 211 c18 116 29 215 25 219
-44 39 -260 60 -352 34z"/>
<path d="M1125 4523 c-150 -32 -297 -114 -402 -225 -213 -227 -379 -742 -399
-1243 -15 -352 52 -596 207 -760 118 -124 256 -182 459 -192 359 -18 650 158
819 494 169 339 263 875 220 1259 -42 384 -217 603 -531 668 -96 20 -278 20
-373 -1z m259 -454 c52 -14 119 -78 147 -142 22 -48 24 -64 24 -227 -1 -305
-83 -711 -187 -930 -43 -89 -126 -171 -197 -195 -109 -36 -236 -6 -300 72 -55
67 -66 118 -65 303 2 373 122 859 250 1017 77 95 207 136 328 102z"/>
<path d="M5808 4427 c-51 -15 -63 -22 -122 -76 -58 -54 -86 -121 -86 -209 0
-83 20 -133 70 -175 117 -99 330 -23 403 142 23 52 27 157 7 206 -14 36 -55
82 -92 101 -39 20 -126 26 -180 11z"/>
<path d="M3786 4028 c-15 -95 -32 -201 -38 -235 l-10 -63 -78 0 c-91 0 -77 23
-110 -180 -11 -69 -22 -140 -25 -157 l-6 -33 81 0 82 0 -6 -27 c-9 -42 -186
-1178 -186 -1191 0 -9 56 -12 213 -12 l213 0 93 588 c51 323 95 599 98 615 l6
27 96 0 96 0 28 178 c15 97 27 180 27 185 0 4 -43 7 -96 7 l-96 0 6 28 c9 43
66 412 66 428 0 12 -35 14 -214 14 l-213 0 -27 -172z"/>
<path d="M6388 4188 c-3 -7 -20 -113 -39 -235 l-34 -223 -81 0 -80 0 -27 -172
c-15 -95 -27 -179 -27 -185 0 -9 22 -13 75 -13 61 0 75 -3 75 -16 0 -16 -177
-1153 -185 -1191 l-5 -23 215 0 c118 0 215 1 216 3 0 1 44 277 98 612 l97 610
97 3 c53 1 97 5 97 9 0 7 49 301 56 336 l6 27 -96 0 c-74 0 -96 3 -96 13 0 15
57 384 66 430 l6 27 -215 0 c-163 0 -216 -3 -219 -12z"/>
<path d="M7311 3978 c-19 -123 -36 -229 -38 -235 -4 -9 -30 -13 -84 -13 -43 0
-79 -4 -79 -8 0 -11 -49 -313 -55 -339 -5 -22 -3 -23 75 -23 44 0 80 -4 80 -8
0 -8 -173 -1118 -185 -1189 l-6 -33 215 0 214 0 11 63 c6 34 42 265 81 512 39
248 79 495 88 550 l17 100 96 3 97 3 29 182 29 182 -93 3 c-84 2 -93 5 -93 22
0 20 56 390 65 428 l5 22 -217 0 -218 0 -34 -222z"/>
<path d="M8450 3746 c-131 -28 -217 -73 -314 -165 -194 -184 -287 -480 -273
-865 6 -168 19 -232 72 -344 59 -124 156 -204 300 -248 83 -25 277 -25 360 0
169 51 332 186 413 344 35 66 82 181 82 199 0 1 -93 3 -207 3 l-208 0 -33 -70
c-48 -103 -114 -141 -217 -126 -57 9 -111 54 -138 115 -14 33 -19 66 -19 132
0 49 3 93 7 99 4 7 145 10 420 10 385 0 414 1 419 18 30 105 38 420 13 525
-45 184 -159 308 -337 361 -75 23 -257 29 -340 12z m197 -357 c76 -28 112 -99
113 -216 l0 -83 -207 0 c-115 0 -214 4 -222 9 -11 7 -10 18 4 67 22 76 38 106
83 156 62 69 154 96 229 67z"/>
<path d="M10070 3740 c-78 -28 -154 -84 -213 -156 -29 -35 -53 -61 -54 -60 -4
3 15 148 22 184 l5 22 -210 0 c-149 0 -210 -3 -210 -11 0 -14 -237 -1522 -246
-1561 l-6 -28 219 0 218 0 48 318 c62 403 81 500 118 588 64 155 155 240 287
271 57 14 74 22 77 38 8 35 55 376 55 396 0 25 -37 25 -110 -1z"/>
<path d="M10687 3744 c-129 -28 -235 -91 -315 -187 -83 -101 -118 -215 -110
-359 7 -137 30 -175 213 -353 84 -82 163 -166 174 -185 30 -51 27 -102 -8
-142 -24 -27 -36 -32 -87 -36 -78 -5 -192 32 -296 98 -43 27 -78 47 -78 44 0
-3 -14 -88 -31 -190 -17 -102 -29 -191 -26 -199 3 -7 39 -29 81 -49 460 -218
914 8 916 456 0 177 -49 256 -273 435 -116 94 -167 150 -167 186 0 36 29 75
70 91 77 31 180 16 307 -43 36 -18 69 -28 73 -24 12 14 63 384 54 393 -14 13
-168 59 -236 70 -85 13 -179 11 -261 -6z"/>
<path d="M2266 3703 c-11 -54 -115 -710 -136 -853 -52 -360 -32 -498 86 -617
94 -94 253 -139 454 -129 63 3 142 13 174 22 186 50 304 169 366 369 15 50
210 1191 210 1231 0 2 -96 4 -214 4 l-214 0 -6 -27 c-3 -16 -40 -244 -81 -508
-41 -264 -85 -511 -97 -549 -16 -50 -33 -81 -63 -113 -39 -40 -45 -43 -93 -43
-43 0 -57 5 -83 28 -41 37 -47 92 -24 238 59 383 146 933 150 952 l5 22 -214
0 -214 0 -6 -27z"/>
<path d="M5540 3721 c0 -12 -238 -1527 -246 -1563 l-6 -28 215 0 215 0 6 28
c3 15 46 284 96 597 50 314 104 652 120 753 17 100 30 192 30 202 0 19 -8 20
-215 20 -127 0 -215 -4 -215 -9z"/>
</g>
</svg>
