<?xml version="1.0" encoding="UTF-8"?>
<svg version="1.1" xmlns="http://www.w3.org/2000/svg" width="1200" height="628">
<path d="M0 0 C396 0 792 0 1200 0 C1200 207.24 1200 414.48 1200 628 C804 628 408 628 0 628 C0 420.76 0 213.52 0 0 Z " fill="none" transform="translate(0,0)"/>
<path d="M0 0 C6.36147861 5.4675737 10.89218349 11.38618992 14.92578125 18.7109375 C15.3125 19.38769531 15.69921875 20.06445312 16.09765625 20.76171875 C36.48865535 58.64192092 26.12850184 114.03217533 14.55078125 152.8359375 C11.44978361 162.82641576 7.60156144 172.35709067 2.92578125 181.7109375 C2.61560059 182.33790527 2.30541992 182.96487305 1.98583984 183.61083984 C-7.57575617 202.56717166 -21.65383777 216.0387782 -41.07421875 224.7109375 C-42.76611328 225.48244141 -42.76611328 225.48244141 -44.4921875 226.26953125 C-63.68050685 233.99089421 -87.36103497 232.84336628 -106.3671875 225.42578125 C-113.76122991 222.06144509 -119.3927278 217.46171493 -125.07421875 211.7109375 C-125.71101563 211.09605469 -126.3478125 210.48117187 -127.00390625 209.84765625 C-146.68443297 189.42364297 -146.66568676 157.20573589 -146.24708557 130.80207825 C-145.49836794 96.00519356 -135.89661588 59.15660067 -119.07421875 28.7109375 C-118.5740625 27.77378906 -118.07390625 26.83664063 -117.55859375 25.87109375 C-113.90784004 19.36192023 -109.29534842 14.01937703 -104.07421875 8.7109375 C-103.38585937 8.0096875 -102.6975 7.3084375 -101.98828125 6.5859375 C-75.71311334 -18.41942675 -29.10190324 -21.66926975 0 0 Z " fill="#252122" transform="translate(178.07421875,187.2890625)"/>
<path d="M0 0 C11.3684066 9.62729928 16.73884427 22.5875934 18.36035156 37.22705078 C19.34243781 51.924373 17.5759296 67.41876167 15.1015625 81.890625 C13.33573887 83.65644863 10.99784251 83.01048061 8.64639282 83.01504517 C7.47359268 83.00965225 7.47359268 83.00965225 6.27709961 83.00415039 C5.45765366 83.00429642 4.6382077 83.00444244 3.79393005 83.0045929 C1.07222897 83.00389352 -1.64940455 82.99610001 -4.37109375 82.98828125 C-6.25296491 82.98641716 -8.13483656 82.98499321 -10.01670837 82.98399353 C-14.97992279 82.98016767 -19.94310814 82.97033681 -24.90631104 82.95928955 C-29.96683356 82.9490769 -35.02736077 82.94449622 -40.08789062 82.93945312 C-50.02475238 82.9287146 -59.96159253 82.91163736 -69.8984375 82.890625 C-69.84594006 86.05857399 -69.75073262 89.22392378 -69.6484375 92.390625 C-69.63425781 93.2775 -69.62007812 94.164375 -69.60546875 95.078125 C-69.36032227 101.74610919 -68.13697269 107.48026441 -63.41674805 112.45092773 C-58.552129 116.68896882 -54.60027867 117.19673204 -48.39453125 117.09765625 C-43.26477352 116.67218339 -40.17887083 114.41672392 -36.7734375 110.765625 C-33.2469763 106.30722527 -33.2469763 106.30722527 -29.8984375 97.890625 C-16.0384375 97.890625 -2.1784375 97.890625 12.1015625 97.890625 C6.0144613 118.18096232 -3.05617132 135.00087346 -21.75390625 146.2890625 C-32.32545004 151.67332704 -42.72175444 155.06943329 -54.5859375 155.078125 C-55.87661133 155.09649414 -55.87661133 155.09649414 -57.19335938 155.11523438 C-72.20748833 155.14917739 -84.83865828 150.33649721 -95.80078125 140.1171875 C-109.53911959 125.867795 -111.1182942 105.57731215 -111.0859375 86.890625 C-111.08500092 86.19676697 -111.08406433 85.50290894 -111.08309937 84.7880249 C-111.0049289 58.12920015 -106.23172911 31.38077445 -87.8984375 10.890625 C-87.27582031 10.07078125 -86.65320313 9.2509375 -86.01171875 8.40625 C-79.51516823 0.67283312 -70.3047565 -4.69741007 -60.8984375 -8.109375 C-60.02316406 -8.42777344 -59.14789062 -8.74617187 -58.24609375 -9.07421875 C-38.90502159 -14.96063201 -16.30457427 -11.86586267 0 0 Z " fill="#262324" transform="translate(896.8984375,263.109375)"/>
<path d="M0 0 C0.76166977 0.00222061 1.52333954 0.00444122 2.30809021 0.00672913 C3.16890701 0.00680466 4.02972382 0.00688019 4.91662598 0.00695801 C5.8520372 0.01211929 6.78744843 0.01728058 7.75120544 0.02259827 C8.70422043 0.02401321 9.65723541 0.02542816 10.63912964 0.02688599 C13.69605085 0.032503 16.75289996 0.04505836 19.80979919 0.05775452 C21.87685543 0.06276733 23.94391281 0.06733061 26.01097107 0.07142639 C31.08977507 0.08247795 36.16852489 0.09975397 41.24729919 0.12025452 C39.63038586 13.53400189 37.68852388 26.86283674 35.43479919 40.18275452 C35.24450638 41.30787949 35.24450638 41.30787949 35.05036926 42.45573425 C34.92223846 43.2132901 34.79410767 43.97084595 34.66209412 44.75135803 C32.82923616 55.59297373 31.05003342 66.44175453 29.33143616 77.30210876 C29.06988887 78.95436236 28.80751741 80.60648573 28.54426575 82.25846863 C23.98269011 101.76602392 23.98269011 101.76602392 27.12229919 120.24525452 C30.86057074 123.54372941 33.85614034 123.53530497 38.71214294 123.44447327 C41.74427952 123.05669617 43.77507276 122.10134791 45.94261169 119.90931702 C54.09095318 108.73584277 55.2304057 94.2778433 56.78245544 80.94837952 C57.51781316 74.89249247 58.47097465 68.87358982 59.70677185 62.89881897 C60.93216467 56.97145854 61.85596554 51.06023706 62.62229919 45.05775452 C63.74137934 36.60199373 64.9744218 28.16960315 66.30979919 19.74525452 C66.47205994 18.70618958 66.63432068 17.66712463 66.80149841 16.59657288 C66.96021423 15.60665344 67.11893005 14.61673401 67.28245544 13.59681702 C67.4204657 12.73137268 67.55847595 11.86592834 67.70066833 10.97425842 C68.39973959 7.32435091 69.3459758 3.72554808 70.24729919 0.12025452 C84.43729919 0.12025452 98.62729919 0.12025452 113.24729919 0.12025452 C111.02507697 20.12025452 111.02507697 20.12025452 109.02854919 29.20228577 C108.38421573 32.43361808 107.84567253 35.63970454 107.35447693 38.89613342 C105.63024924 50.20156191 103.77747742 61.48658374 101.93580723 72.77336216 C101.30875207 76.61630674 100.68370549 80.45955385 100.0634613 84.30360413 C99.45618318 88.06706008 98.84383845 91.82966045 98.22805595 95.59173393 C97.99711653 97.00777538 97.76787938 98.42409571 97.54051399 99.84071541 C94.44867852 119.08291433 90.72883973 139.10719581 74.74729919 152.05775452 C73.26831717 153.10880773 71.76938896 154.13265973 70.24729919 155.12025452 C69.65819763 155.50697327 69.06909607 155.89369202 68.46214294 156.29212952 C52.83039617 165.22455624 31.01333763 165.47945557 13.80979919 161.93275452 C3.25595234 158.88103976 -6.54086818 153.74013705 -12.57691956 144.25306702 C-25.83034739 119.02983632 -16.91734335 86.42651752 -11.8210907 59.84390259 C-10.64486319 53.66705387 -9.70301581 47.46902373 -8.81520081 41.24525452 C-8.47717014 38.9274716 -8.13861301 36.60976541 -7.79957581 34.29212952 C-7.62877502 33.11972717 -7.45797424 31.94732483 -7.28199768 30.73939514 C-6.39224538 24.65559069 -5.48459135 18.57464526 -4.56520081 12.49525452 C-4.39834778 11.36877502 -4.23149475 10.24229553 -4.05958557 9.0816803 C-3.90288391 8.05026917 -3.74618225 7.01885803 -3.58473206 5.95619202 C-3.44784973 5.04401917 -3.31096741 4.13184631 -3.16993713 3.19203186 C-2.56249976 0.17581561 -2.56249976 0.17581561 0 0 Z " fill="#252223" transform="translate(228.75270080566406,254.87974548339844)"/>
<path d="M0 0 C1 1 1 1 1.14453125 4.02758789 C0.9887679 8.30871195 0.42318613 12.34699952 -0.3125 16.55859375 C-0.44567627 17.34774673 -0.57885254 18.13689972 -0.71606445 18.94996643 C-1.13867727 21.44675835 -1.56920344 23.94210849 -2 26.4375 C-2.2895884 28.13988458 -2.57865613 29.84235782 -2.8671875 31.54492188 C-3.57210861 35.69766398 -4.28412533 39.84913272 -5 44 C-6.42892578 43.96519531 -6.42892578 43.96519531 -7.88671875 43.9296875 C-9.76810547 43.90261719 -9.76810547 43.90261719 -11.6875 43.875 C-13.54955078 43.84019531 -13.54955078 43.84019531 -15.44921875 43.8046875 C-18.84345156 43.99138897 -21.02443534 44.40020085 -24 46 C-25.27439728 48.33408207 -25.27439728 48.33408207 -26 51 C-26.31839844 51.72316406 -26.63679687 52.44632813 -26.96484375 53.19140625 C-30.14446995 60.94254322 -31.19253394 68.79203334 -32.2890625 77.03515625 C-33.00765206 82.05343829 -34.00579515 87.02897573 -35 92 C-27.74 92 -20.48 92 -13 92 C-14.54607177 104.51581911 -16.10410073 116.72690309 -19 129 C-26.59 129 -34.18 129 -42 129 C-42.17329834 131.46605713 -42.17329834 131.46605713 -42.35009766 133.98193359 C-43.00504765 141.8057337 -44.19456247 149.53578675 -45.3984375 157.2890625 C-45.63676789 158.84299847 -45.87476756 160.39698519 -46.11245728 161.95101929 C-46.60927811 165.19380715 -47.10872314 168.43617505 -47.61035156 171.67822266 C-48.24474099 175.77842855 -48.87462789 179.87930844 -49.5027523 183.98047829 C-50.11223239 187.95858306 -50.72400113 191.93633496 -51.3359375 195.9140625 C-51.44823071 196.64516865 -51.56052391 197.3762748 -51.67621994 198.12953568 C-52.88896617 206.01487039 -54.14425167 213.88969256 -55.47900391 221.75537109 C-57.13387584 231.81369862 -58.5584137 241.90889587 -60 252 C-74.52 252 -89.04 252 -104 252 C-103.39095868 244.69150418 -102.75864238 237.63275647 -101.5625 230.4375 C-101.44068359 229.67759766 -101.31886719 228.91769531 -101.19335938 228.13476562 C-100.53009293 224.04175868 -99.81078428 219.96282285 -99.05078125 215.88671875 C-97.87056942 209.4452675 -96.90520219 202.97303914 -95.94113159 196.496521 C-95.39637619 192.84073316 -94.84468446 189.18599291 -94.29296875 185.53125 C-94.18281937 184.80130829 -94.07266998 184.07136658 -93.95918274 183.31930542 C-91.21523045 165.17068859 -88.1965407 147.07405728 -85 129 C-90.94 129 -96.88 129 -103 129 C-102.33670727 120.69836782 -101.24415559 112.53565765 -99.9375 104.3125 C-99.75123047 103.12205078 -99.56496094 101.93160156 -99.37304688 100.70507812 C-98.91848799 97.80289449 -98.45968739 94.90137574 -98 92 C-91.73 92 -85.46 92 -79 92 C-78.61328125 89.23753906 -78.2265625 86.47507812 -77.828125 83.62890625 C-77.43935665 80.89125108 -77.0479233 78.15398894 -76.65625 75.41674805 C-76.38980459 73.54474488 -76.12603923 71.67235788 -75.86523438 69.79956055 C-68.71233236 18.50499977 -68.71233236 18.50499977 -50 4 C-34.04658351 -5.69671525 -17.40418263 -6.69805483 0 0 Z " fill="#252223" transform="translate(550,163)"/>
<path d="M0 0 C0.91434814 0.00161133 1.82869629 0.00322266 2.77075195 0.00488281 C14.58028587 0.21585969 25.09332765 3.69027546 35.875 8.375 C35.27896692 16.99199134 34.21733511 25.4693631 32.875 34 C32.69710938 35.16917969 32.51921875 36.33835937 32.3359375 37.54296875 C31.00491071 46.11517857 31.00491071 46.11517857 29.875 48.375 C25.45443646 46.91953115 21.06764953 45.3852225 16.6875 43.8125 C11.04964426 41.7891162 6.51728 40.20761712 0.5 40.125 C-0.62148437 40.09921875 -1.74296875 40.0734375 -2.8984375 40.046875 C-6.43700927 40.40672976 -8.21049348 41.41826418 -11.125 43.375 C-11.785 43.375 -12.445 43.375 -13.125 43.375 C-14.23486931 47.3201657 -14.85348873 50.76151129 -13.125 54.58984375 C-7.84776418 61.88562227 -0.26405184 67.03809849 6.875 72.375 C17.21235797 80.12101485 25.70105476 88.41355844 28.875 101.375 C30.90212296 117.17412702 28.08074435 132.72346616 18.87109375 145.9140625 C11.90104873 154.50726869 4.15716147 159.44358532 -6.125 163.375 C-6.95 163.7153125 -7.775 164.055625 -8.625 164.40625 C-25.39798508 170.2122833 -45.27537255 166.77396586 -60.80517578 159.28125 C-69.60296563 154.89703437 -69.60296563 154.89703437 -71.125 153.375 C-71.61591229 146.15677118 -70.3034312 139.15870012 -69.09863281 132.06396484 C-68.74758314 129.98569175 -68.41234207 127.90525748 -68.078125 125.82421875 C-67.85771236 124.49984296 -67.6363912 123.17561798 -67.4140625 121.8515625 C-67.21506348 120.65611816 -67.01606445 119.46067383 -66.81103516 118.22900391 C-66.125 115.375 -66.125 115.375 -64.125 113.375 C-63.44695313 113.82230469 -62.76890625 114.26960938 -62.0703125 114.73046875 C-50.41662912 122.3005207 -39.46807244 128.93402961 -25.125 127.375 C-21.82785714 126.19744898 -19.9078103 125.37130402 -17.75 122.625 C-16.61160334 118.52677201 -16.24905078 115.230357 -18.1171875 111.2734375 C-23.44468535 102.7554607 -30.91796272 96.04503769 -38.75 89.875 C-47.80868645 82.59729999 -54.58016375 73.85918563 -57.125 62.375 C-58.01598109 45.24074824 -55.98857292 31.84356484 -44.875 18.1875 C-33.19548956 5.51126985 -16.89556158 -0.0313898 0 0 Z " fill="#252223" transform="translate(1083.125,251.625)"/>
<path d="M0 0 C14.19 0 28.38 0 43 0 C43 10 43 10 42 13 C41.68024597 15.16269999 41.39384382 17.33038324 41.125 19.5 C39.95430727 28.70044418 38.47048483 37.84288993 37 47 C42.94 47 48.88 47 55 47 C54.52409465 59.73046824 52.54885955 71.50236609 50 84 C43.4 84 36.8 84 30 84 C29.86980469 85.72089844 29.73960937 87.44179688 29.60546875 89.21484375 C29.062003 95.7013398 28.2450904 102.12163539 27.3125 108.5625 C27.14097412 109.75794434 26.96944824 110.95338867 26.79272461 112.18505859 C25.26709279 122.59831294 23.49395042 132.96202279 21.67626953 143.32751465 C19.45548886 156.00598792 17.50464691 168.71007276 15.73657227 181.45947266 C15.6418866 182.1289241 15.54720093 182.79837555 15.449646 183.4881134 C15.19734801 185.27319056 14.95058752 187.05904805 14.7043457 188.8449707 C13.67207704 194.93446127 12.29412795 200.96073623 11 207 C-3.19 207 -17.38 207 -32 207 C-30.31212714 191.80914424 -28.17939271 176.71812812 -25.61962891 161.65014648 C-24.20053505 153.27696176 -22.86722166 144.89162307 -21.5625 136.5 C-21.45911316 135.8360321 -21.35572632 135.17206421 -21.24920654 134.48797607 C-20.26458185 128.16376629 -19.28424271 121.83889532 -18.30615234 115.51367188 C-17.73241522 111.80341358 -17.15704117 108.09341198 -16.58078003 104.38354492 C-16.25626695 102.29042209 -15.93388622 100.19697804 -15.61157227 98.10351562 C-15.41490967 96.83701172 -15.21824707 95.57050781 -15.015625 94.265625 C-14.84321289 93.14961914 -14.67080078 92.03361328 -14.49316406 90.88378906 C-14.09737981 88.56943088 -13.56946306 86.27785223 -13 84 C-18.28 84 -23.56 84 -29 84 C-27.91434706 75.56531179 -26.74996283 67.15250141 -25.4375 58.75 C-25.31076904 57.92846436 -25.18403809 57.10692871 -25.0534668 56.26049805 C-24.5493761 53.07324736 -24.02235683 50.06707049 -23 47 C-17.72 47 -12.44 47 -7 47 C-6.49339844 43.54466797 -6.49339844 43.54466797 -5.9765625 40.01953125 C-5.64236042 37.74225303 -5.3080036 35.46499759 -4.97363281 33.18774414 C-4.74463062 31.62754642 -4.51578459 30.06732576 -4.28710938 28.50708008 C-3.95485727 26.24033379 -3.62200822 23.97367575 -3.2890625 21.70703125 C-3.19001617 21.03041946 -3.09096985 20.35380768 -2.98892212 19.6566925 C-2.0246385 13.09912666 -1.00793456 6.55157466 0 0 Z " fill="#252122" transform="translate(734,208)"/>
<path d="M0 0 C14.52 0 29.04 0 44 0 C43.21625 5.89875 42.4325 11.7975 41.625 17.875 C41.38217285 19.71562012 41.1393457 21.55624023 40.88916016 23.45263672 C39.83458872 31.36355756 38.71404355 39.198699 37 47 C43.27 47 49.54 47 56 47 C54.30487152 59.4068978 52.41182546 71.71117505 50 84 C43.73 84.33 37.46 84.66 31 85 C30.61908203 87.39378906 30.61908203 87.39378906 30.23046875 89.8359375 C28.43631505 101.09009477 26.63023954 112.3406568 24.7109375 123.57421875 C24.10246035 127.24880569 23.57822115 130.93295005 23.05859375 134.62109375 C22.0301077 141.88877132 20.87247803 149.13142019 19.6875 156.375 C18.29251827 164.93142866 16.9157372 173.48994291 15.59765625 182.05859375 C15.48399216 182.79555481 15.37032806 183.53251587 15.2532196 184.29180908 C14.7020737 187.86694597 14.15443708 191.44256534 13.61206055 195.01904297 C13.41523682 196.2979541 13.21841309 197.57686523 13.015625 198.89453125 C12.84321289 200.02737549 12.67080078 201.16021973 12.49316406 202.32739258 C12 205 12 205 11 207 C-3.19 207 -17.38 207 -32 207 C-29.75534645 189.0427716 -29.75534645 189.0427716 -28.66796875 182.79296875 C-28.42694218 181.38674294 -28.18606286 179.98049188 -27.9453125 178.57421875 C-27.7601709 177.50373291 -27.7601709 177.50373291 -27.57128906 176.41162109 C-25.33775505 163.46792208 -23.30365049 150.51030757 -21.5 137.5 C-19.01804983 119.60654992 -16.04601393 101.8050505 -13 84 C-17.95 84 -22.9 84 -28 84 C-28 78.85588747 -27.76050557 74.72994494 -26.90625 69.75390625 C-26.73977966 68.76994118 -26.73977966 68.76994118 -26.56994629 67.76609802 C-26.21867761 65.69727057 -25.85948723 63.62991346 -25.5 61.5625 C-25.25858663 60.14917862 -25.01769634 58.73576779 -24.77734375 57.32226562 C-24.19189676 53.88024106 -23.59572691 50.44032288 -23 47 C-17.39 47 -11.78 47 -6 47 C-6 44.36 -6 41.72 -6 39 C-5.70257037 36.56550158 -5.34875057 34.13728624 -4.94140625 31.71875 C-4.8327977 31.06096558 -4.72418915 30.40318115 -4.61228943 29.72546387 C-4.26838379 27.64925002 -3.91585932 25.57462368 -3.5625 23.5 C-3.214427 21.42512642 -2.8682125 19.34995768 -2.52342224 17.27453613 C-2.20976261 15.39145394 -1.89128549 13.509176 -1.57250977 11.62695312 C-0.96272362 7.76384738 -0.48509198 3.88073587 0 0 Z " fill="#252223" transform="translate(638,208)"/>
<path d="M0 0 C14.19 0 28.38 0 43 0 C41.87385371 13.51375551 41.87385371 13.51375551 40.84375 20.06640625 C40.68295959 21.09567482 40.68295959 21.09567482 40.5189209 22.14573669 C40.29575359 23.5682658 40.07054047 24.9904755 39.84326172 26.41235352 C39.49563371 28.58984988 39.15557835 30.76843769 38.81640625 32.94726562 C37.14233701 43.57298898 37.14233701 43.57298898 36 47 C42.27 47 48.54 47 55 47 C54.33670727 55.30163218 53.24415559 63.46434235 51.9375 71.6875 C51.75123047 72.87794922 51.56496094 74.06839844 51.37304688 75.29492188 C50.91848799 78.19710551 50.45968739 81.09862426 50 84 C43.4 84 36.8 84 30 84 C29.81244141 86.11535156 29.81244141 86.11535156 29.62109375 88.2734375 C28.93868035 95.09277418 27.73330933 101.80419246 26.54882812 108.55078125 C25.57048076 114.24230777 24.74306513 119.92580394 24.0546875 125.66015625 C23.09402969 133.65201546 21.8112236 141.57399186 20.45620728 149.50738525 C19.78185928 153.45562194 19.11841552 157.40569771 18.453125 161.35546875 C18.32412308 162.11935913 18.19512115 162.88324951 18.06221008 163.67028809 C17.1100415 169.3164144 16.19336116 174.9672884 15.3125 180.625 C13.93324014 189.42599149 12.46453395 198.21279627 11 207 C-3.19 207 -17.38 207 -32 207 C-31.36839994 198.7891992 -30.64559894 191.13143353 -29.125 183.125 C-27.74344314 175.53756889 -26.55427436 167.96811546 -25.625 160.3125 C-23.9040608 146.32848509 -21.46316785 132.46471174 -19.10542297 118.57739258 C-17.73863878 110.5030819 -16.45812326 102.41553115 -15.20532227 94.32275391 C-14.98573853 92.92355713 -14.98573853 92.92355713 -14.76171875 91.49609375 C-14.63756592 90.69357178 -14.51341309 89.8910498 -14.38549805 89.06420898 C-14 87 -14 87 -13 84 C-18.28 84 -23.56 84 -29 84 C-27.09564057 66.86076512 -27.09564057 66.86076512 -25.44140625 59.29296875 C-24.6583019 55.22498422 -24.35354868 51.12473456 -24 47 C-18.39 47 -12.78 47 -7 47 C-6.896875 45.5975 -6.79375 44.195 -6.6875 42.75 C-6.18403319 37.24022946 -5.43887228 31.78315084 -4.625 26.3125 C-4.51115967 25.53680664 -4.39731934 24.76111328 -4.2800293 23.96191406 C-3.06016635 15.92497849 -1.50107345 8.00572506 0 0 Z " fill="#252223" transform="translate(381,208)"/>
<path d="M0 0 C6.62854139 4.62185406 10.71225339 10.9287118 12.55322266 18.74267578 C18.57870231 54.50702554 8.98708992 106.975583 -11 137.39453125 C-15.8611741 143.64776884 -22.17246551 147.8546884 -30 149.39453125 C-39.82041857 150.32600727 -47.00760577 149.14444201 -54.80859375 142.9609375 C-62.91040703 134.85912422 -63.45944344 123.25004552 -63.625 112.45703125 C-63.51266592 79.48697856 -58.05186357 30.49734011 -34.96484375 5.1875 C-25.66383735 -3.29989948 -11.38462963 -5.92251872 0 0 Z " fill="none" transform="translate(143,222.60546875)"/>
<path d="M0 0 C-0.58573712 10.03087037 -1.68023672 19.92610237 -3.0625 29.875 C-3.2510574 31.25645501 -3.43921022 32.63796531 -3.62695312 34.01953125 C-4.08068743 37.34691615 -4.53842314 40.67369559 -5 44 C-5.88042969 44.18828369 -6.76085937 44.37656738 -7.66796875 44.57055664 C-8.82941406 44.82699951 -9.99085938 45.08344238 -11.1875 45.34765625 C-12.33605469 45.59781494 -13.48460937 45.84797363 -14.66796875 46.10571289 C-24.89977115 48.85183629 -31.89560834 55.06565451 -37.30078125 63.96484375 C-46.82145483 80.97073656 -48.55128863 100.12465861 -51.0625 119.125 C-51.77475067 124.46398472 -52.58775848 129.76579139 -53.5625 135.0625 C-55.24282448 144.34081342 -56.60126208 153.67508056 -58 163 C-72.52 163 -87.04 163 -102 163 C-101.38092503 156.80925031 -100.72617144 150.74680287 -99.73046875 144.625 C-99.54705681 143.47354492 -99.54705681 143.47354492 -99.35993958 142.29882812 C-98.97183898 139.86544218 -98.57987873 137.43269939 -98.1875 135 C-97.67979903 131.83352329 -97.17373628 128.66678605 -96.66796875 125.5 C-96.46939018 124.25892738 -96.46939018 124.25892738 -96.26679993 122.99278259 C-95.20111832 116.31294582 -94.17146701 109.62789193 -93.1484375 102.94140625 C-90.8772479 88.11597016 -88.52486147 73.30369156 -86.16333008 58.49243164 C-85.55469265 54.67470823 -84.94802116 50.85667514 -84.34181118 47.03856564 C-83.86316209 44.02590835 -83.38319234 41.01346249 -82.90287971 38.00107002 C-82.67881644 36.59453159 -82.45519471 35.18792272 -82.23208427 33.78123283 C-80.60033874 23.4980254 -78.80985045 13.25581922 -77 3 C-63.14 3 -49.28 3 -35 3 C-35.66 9.6 -36.32 16.2 -37 23 C-35.88625 21.515 -34.7725 20.03 -33.625 18.5 C-24.93454847 7.72079082 -14.25455161 -0.21834794 0 0 Z " fill="#252223" transform="translate(1018,252)"/>
<path d="M0 0 C14.19 0 28.38 0 43 0 C42.41195783 7.05650609 41.84088838 13.84050082 40.66015625 20.7734375 C40.53313828 21.54450836 40.4061203 22.31557922 40.2752533 23.11001587 C39.87546681 25.53244353 39.46936496 27.9537522 39.0625 30.375 C38.53033126 33.5699464 38.0008622 36.76533372 37.47265625 39.9609375 C37.27925911 41.1281559 37.27925911 41.1281559 37.08195496 42.31895447 C36.13637519 48.0655905 35.29497234 53.82280141 34.48950195 59.59082031 C33.59754539 65.80293079 32.57314013 71.99379175 31.5625 78.1875 C31.11659575 80.93219576 30.67157812 83.67703504 30.2265625 86.421875 C30.11865891 87.08666367 30.01075531 87.75145233 29.89958191 88.43638611 C29.06213429 93.60085495 28.24480286 98.76824955 27.4375 103.9375 C26.1600499 112.10842905 24.78825037 120.26278243 23.41430664 128.41796875 C22.3290612 134.90106211 21.33398843 141.38268146 20.4921875 147.90234375 C19.84610426 151.96856604 18.8931527 155.98081283 18 160 C3.81 160 -10.38 160 -25 160 C-24.505 156.04 -24.505 156.04 -24 152 C-23.78382534 150.23828479 -23.56767631 148.47656643 -23.3515625 146.71484375 C-21.19404573 129.42638008 -21.19404573 129.42638008 -19.5625 121.8125 C-17.84023094 113.73039365 -16.73754587 105.57521185 -15.62133789 97.38989258 C-14.2662058 87.54384288 -12.69428232 77.737582 -11.11254883 67.92578125 C-9.94811497 60.69695103 -8.81041169 53.46402804 -7.67578125 46.23046875 C-7.28323802 43.73241639 -6.89065982 41.23436953 -6.49804688 38.73632812 C-5.89813464 34.91818586 -5.29879327 31.09995747 -4.70092773 27.28149414 C-4.11085093 23.51422625 -3.51851921 19.74731873 -2.92578125 15.98046875 C-2.74662674 14.83273483 -2.56747223 13.68500092 -2.38288879 12.50248718 C-2.21568832 11.44229874 -2.04848785 10.38211029 -1.8762207 9.28979492 C-1.7306221 8.36148361 -1.5850235 7.4331723 -1.43501282 6.47673035 C-1.05248166 4.29880251 -0.53631091 2.14524366 0 0 Z " fill="#252223" transform="translate(554,255)"/>
<path d="M0 0 C3.63282133 2.79136605 6.70104632 6.24193639 8.75390625 10.34765625 C9.56623882 21.86679843 8.94551456 30.25730522 1.62890625 39.59765625 C-3.60124931 45.25706864 -10.91789632 48.89045119 -18.61328125 49.55078125 C-26.63677332 49.70075306 -31.1951038 47.66271918 -36.94921875 42.140625 C-41.79734435 35.43794533 -40.98910473 26.19228795 -40.24609375 18.34765625 C-37.92133075 10.70297048 -31.7138601 4.30671792 -25.15234375 -0.0390625 C-17.33002079 -4.07776185 -7.71158451 -4.49171624 0 0 Z " fill="#262223" transform="translate(600.24609375,186.65234375)"/>
<path d="M0 0 C4.77775157 4.31162946 6.47223995 7.04171984 8.5625 13.3125 C8.5625 18.2625 8.5625 23.2125 8.5625 28.3125 C-5.9575 28.3125 -20.4775 28.3125 -35.4375 28.3125 C-33.23027138 16.17274261 -30.72906436 9.56871835 -21.46484375 1.6875 C-15.00199284 -2.69578232 -7.01687521 -3.44464783 0 0 Z " fill="none" transform="translate(867.4375,289.6875)"/>
<path d="M0 0 C0.66 0 1.32 0 2 0 C2.33 0.99 2.66 1.98 3 3 C10.59 3.33 18.18 3.66 26 4 C26 4.33 26 4.66 26 5 C17.42 5 8.84 5 0 5 C0 3.35 0 1.7 0 0 Z " fill="#312F30" transform="translate(702,410)"/>
<path d="M0 0 C0.33 0.99 0.66 1.98 1 3 C-1.375 6.1875 -1.375 6.1875 -4 9 C-4.33 9 -4.66 9 -5 9 C-5.1875 5.625 -5.1875 5.625 -5 2 C-2 0 -2 0 0 0 Z " fill="#2F2C2D" transform="translate(166,387)"/>
<path d="M0 0 C0.99 0 1.98 0 3 0 C2.875 2.3125 2.875 2.3125 2 5 C-0.94597606 6.96398404 -2.80035455 8.15784809 -6.375 7.6875 C-6.91125 7.460625 -7.4475 7.23375 -8 7 C-7.05125 6.5875 -6.1025 6.175 -5.125 5.75 C-1.99283376 3.9959869 -1.13499394 3.29148243 0 0 Z " fill="#393738" transform="translate(1066,372)"/>
<path d="M0 0 C1.32 0 2.64 0 4 0 C4 0.66 4 1.32 4 2 C3.34 2 2.68 2 2 2 C1.34 3.98 0.68 5.96 0 8 C-0.99 8 -1.98 8 -3 8 C-2.01 5.36 -1.02 2.72 0 0 Z " fill="#363536" transform="translate(866,362)"/>
<path d="M0 0 C0.66 0 1.32 0 2 0 C1.45912682 3.78611227 -0.11722332 5.55400767 -3 8 C-3.66 8 -4.32 8 -5 8 C-4.1875 5.5625 -4.1875 5.5625 -3 3 C-2.01 2.67 -1.02 2.34 0 2 C0 1.34 0 0.68 0 0 Z " fill="#2C2A2B" transform="translate(983,307)"/>
<path d="M0 0 C-0.33 0.99 -0.66 1.98 -1 3 C-2.2065625 3.4640625 -2.2065625 3.4640625 -3.4375 3.9375 C-6.14157493 4.76608159 -6.14157493 4.76608159 -7.3125 7.125 C-7.539375 7.74375 -7.76625 8.3625 -8 9 C-8.99 8.67 -9.98 8.34 -11 8 C-4.73913043 0 -4.73913043 0 0 0 Z " fill="#323132" transform="translate(579,186)"/>
<path d="M0 0 C0.33 0.66 0.66 1.32 1 2 C1.99 2.33 2.98 2.66 4 3 C3.34 4.32 2.68 5.64 2 7 C0.68 5.35 -0.64 3.7 -2 2 C-1.34 1.34 -0.68 0.68 0 0 Z " fill="#383536" transform="translate(1057,348)"/>
<path d="M0 0 C0.99 0.33 1.98 0.66 3 1 C2.34 2.98 1.68 4.96 1 7 C0.34 7 -0.32 7 -1 7 C-1.04254356 5.00045254 -1.04080783 2.99958364 -1 1 C-0.67 0.67 -0.34 0.34 0 0 Z " fill="#2F2D2E" transform="translate(93,249)"/>
</svg>
