<svg xmlns="http://www.w3.org/2000/svg" width="853" height="1280"><path fill="none" d="M0 0h853v1280H0z"/><path fill="#085988" d="m474 109 7 7 2 3q3 9 0 19-5 9-14 13l1 23h2q26 3 50 11l3 1 21 10c25 16 50 41 59 70q3 8 11 12 12 8 17 20l1 2c6 12 6 30 2 42q-8 22-29 31l-3 1-3 5q-14 26-39 39l-5 1-3-4-2 1-2 9v6h2q26 2 44 21 15 18 21 41l1 2q11 33-4 62-11 18-32 23l-16 1-11 2h-6v255q-27 7-55 8l1 3c16 6 39-1 55-7q14-6 27-18l3-1 1-2 4-3 2-4 4-5q7-9 5-22-5-13-15-23l-2-2-3-3q-2-4 0-10l7-12 1-2 3-6q8 2 12 8 19 28 13 61-2 13-8 25l-2 3q-6 15-17 27l-1 2-12 11-2 2c-11 9-11 9-18 9h-2l2 4 1 3q3 4 7 5h9l10 1h49v74H276l1-74h9l58-1h4q8 1 12-5 3-5 2-11l1-24v-34l-4 1-5 2-2 1-23 5c-32 6-70 8-98-10q-17-12-20-30a90 90 0 0 1 3-43q4-9 10-17h1v2c-2 18-2 35 9 51q15 14 35 17l3 1 28 1h2c39 0 74-7 107-29l17-11q24-14 52-14 8-14 12-30h-3q-27-2-52-13c-22-10-42-17-65-8l-5 3h-2V560l-93 25c-23 7-23 7-34 8l-40-84-1-2-3-10q38-24 77-45v-2q-4-15 4-29a46 46 0 0 1 61-12l10 12 3-1 1-2h3l-3-5 2-2-2-2c-10-9-22-21-26-34l-5-2q-20-10-28-32-6-20 2-41 9-16 25-25h2v-2a123 123 0 0 1 38-58q26-24 59-34l3-1q17-6 36-6l2-15v-8l-6-4q-7-3-9-11-3-10 2-19 13-17 31-8"/><path fill="#f7f8f8" d="m474 109 7 7 2 3q3 9 0 19-5 9-14 13l1 23h2q26 3 50 11l3 1 21 10c25 16 50 41 59 70q3 8 11 12 12 8 17 20l1 2c6 12 6 30 2 42q-8 22-29 31l-3 1-3 5q-14 26-39 39l-5 1-3-4-2 1-2 9v6h6v1h-7v-20h-64c-54 0-54 0-107 5l-31 4 1-3h3l-3-5 2-2-2-2c-10-9-22-21-26-34l-5-2q-20-10-28-32-6-20 2-41 9-16 25-25h2v-2a123 123 0 0 1 38-58q26-24 59-34l3-1q17-6 36-6l2-15v-8l-6-4q-7-3-9-11-3-10 2-19 13-17 31-8"/><path fill="#0d4f7c" d="M439 230h50c25 0 47 4 66 22 16 17 28 38 27 63q0 16-11 29l-2 3a55 55 0 0 1-37 15H422c-49 1-49 1-66-15a54 54 0 0 1-13-40q2-26 20-47l1-2q13-13 29-21l3-1c14-7 28-6 43-6"/><path fill="#083056" d="M332 408q8 6 12 13l17-2 32-5a639 639 0 0 1 114-2h42v20h7l-4 2 2 2 1 5-6-1v59l6 1 1-2 1 3h3q3-18 3-37v-22l9 1 1-2 1 2 4 3q5 2 6 6l3 3q4 2 5 7l3 5a122 122 0 0 1 15 36c4 16 4 36-4 50q-8 14-23 18h-5l1-2 2-9q0-2 2-3l1-7v-8l-1-14h-3l-1 12c1 18 1 18-4 24l-5 2-2 2q-13 11-30 9-7 1-16-2l-2 5-5-2q-5-6-4-14 1-7-3-12l-2-2q-4-4-2-11 0-4 3-7l-2-4q-3-6-2-12 4-10 16-15l2-1 16-2v-73h-60l-71 2h-2a264 264 0 0 0-56 9v2q1 7-2 14l-1 2q-3 5-9 7l-8 1-1 2q-2 5-7 8l-13 1q-4 0-7 4-9 3-18 0-6-3-9-9v-2l-3 1-19 11-2 1-4 2-2-1 1-4-2-1 2-4-4-1v2q-3 3-7 3v2l-10 4v-3l2-1 27-16 17-9v-2q-4-15 4-29c13-18 40-24 59-13"/><path fill="#093c63" d="M587 729q8 2 12 8 19 28 13 61-2 13-8 25l-2 3q-6 15-17 27l-1 2-14 13c-11 9-11 9-18 9h-2l2 4 1 3q3 4 7 5h9l10 1h49v74H276l1-74h21l46-1h4q8 1 12-5 3-5 2-11l1-24v-34l-4 1-23 6v-2q5-3 12-3l3-1 2-4 2-2h3l1-2 2 1h9l6-1 1 35-1 46-3 1-3 5q-4 6-12 8l-18 1-1 2h-2v-3h-17v2h-3l-12-2v2l-4-1h-10l-1 47h325v-48h-47q-15 1-25-8-7-8-6-18h-4q-16-1-27-12c-6-7-6-7-7-11h-2l-1 2v-2h-3v-3l-3 1-1-9 14-1h23v1q-16 3-32 3l1 3c16 6 39-1 55-7q14-6 27-18l3-1 1-2 4-3 2-4 4-5q7-9 5-22-5-13-15-23l-2-2-3-3q-2-4 0-10l7-12 1-2z"/><path fill="#0e3254" d="m474 109 7 7 2 3q3 9 0 19-5 9-14 13l1 23h2q26 3 50 11l3 1 21 10c25 16 50 41 59 70q3 8 11 12 12 8 17 20l1 2c6 12 6 30 2 42q-8 22-29 31l-3 1-3 5c-9 15-24 34-41 40h-2v-9l7-5q31-21 39-58l2-26v-3a126 126 0 0 0-34-88c-23-26-59-42-94-45a176 176 0 0 0-60 6q-15 4-29 12l-3 2a130 130 0 0 0-54 170q10 20 28 33l-3 3q-5 2-10-2c-10-8-21-21-25-34l-5-2q-20-10-28-32-6-20 2-41 9-16 25-25h2v-2a123 123 0 0 1 38-58q26-24 59-34l3-1q17-6 36-6l2-15v-8l-6-4q-7-3-9-11-3-10 2-19 13-17 31-8"/><path fill="#cfdee5" d="m463 184 2-1 6 1h7l2 3h-3l-27 5-3 1q-14 4-26 11l-2 1a116 116 0 0 0-30 22q-9 7-14 19l3 1-2 2a85 85 0 0 0-32 52q-3 22 9 41l7 7-2 2c0 9 10 21 15 28l2 3q15 16 35 22v1h-3c-21 1-21 1-42 5l-6-1-5-5-3-3q-12-12-20-27l-1-2c-14-27-15-62-6-91a139 139 0 0 1 77-85l3-2 16-5 3-1q19-4 40-4"/><path fill="#07375d" d="M586 443q15 12 23 29l2 3c9 21 16 49 8 72q-7 20-27 30-13 5-26 4l-11 2h-6v255l-21 4 8-3 1-255-13-1-5-2 3-6 4 1q21 3 41-7l4-5h4v-3l2-5 1-14v-8l2-6h3q3 9 2 17v8q0 3-3 5v4l-4 9q18-3 28-19c10-22 5-46-3-68q-4-13-13-23l-1-2q-2-5-7-8l-1-1v-3h-3l-4-2-7-3h-4v2l-2 58-12-3v-59l6 1-4-8c12-4 25 3 35 10"/><path fill="#134f76" d="M611 1000q15 10 19 28 3 20-8 36-12 14-29 16-20 2-35-10-12-11-14-27-3-20 10-35c16-16 38-19 57-8"/><path fill="#072d54" d="M240 470h5l-3 5 3 1q0 4-3 7l-14 8-19 11 5 12 1 2 7 14 1 2 18 38 2 3 1 5 118-32 3-1 3-1 3-1h5l1 132c0 11 0 11-3 14q-5 4-11 5V560l-93 25c-23 7-23 7-34 8l-40-84-1-2-3-10 4-2 2-2 15-9q6-5 14-5l3-2h3v-2q4-4 7-3z"/><path fill="#0b466f" d="M76 996c50 0 50 0 58 7q9 9 8 23 0 10-8 16l-9 5 12 17 1 1 7 13c-18 3-18 3-24-1l-9-16-4-6-1-3c-3-3-3-3-11-3v29H76z"/><path fill="#135075" d="M645 996c17 0 17 0 22 5l8 11 23 34h2v-50h18v82c-16 0-16 0-21-5l-3-3-9-14-10-14-2-2-1-2-2-2-5-7-1 49h-19z"/><path fill="#1f5474" d="M557 210q6 0 11 3l8 7q19 20 29 46 3 8 11 12 12 8 17 20l1 2c6 12 6 30 2 42q-8 22-29 31l-3 1-3 5c-9 15-24 34-41 40h-2v-9l7-5q31-21 39-58l2-26v-3q0-49-34-87-4-4-4-10h-2l-3-3-3-2v-4l-3-1zm5 3 1 3h3v-2z"/><path fill="#0e4971" d="M188 996h20l1 3 9 23 7 19 10 24 1 3 1 3 1 7h-19c-5-11-5-11-6-17h-34l-3 11-3 6h-19l5-16 22-54 1-2 1-4q2-7 5-6"/><path fill="#0d4871" d="M250 996h19v31h35v-31h19v82h-19v-35h-35v35h-19z"/><path fill="#0c466f" d="M369 996h21l8 19 1 2 7 18 8 23 8 20h-20l-7-17h-32l-6 17h-20c1-7 1-7 3-10z"/><path fill="#0e2a4d" d="M439 230h51q15-1 31 3l-2 2-6-1-17-1 1 5h-62a84 84 0 0 0-65 27l-2 3h-2l-1 2-4 8-7 18-1 2q-3 19 6 35 6 12 18 16h5l2 2h24l119 2h2l15-1v6l-5 1h-14l14 1q-4 3-10 2H422c-49 1-49 1-66-15a54 54 0 0 1-13-40q2-26 20-47l1-2q13-13 29-21l3-1c14-7 28-6 43-6"/><path fill="#0f4366" d="m474 109 7 7 2 3q3 9 0 19-5 9-14 13l1 23h2q26 3 50 11l3 1q22 10 40 25h-7l2 2 2 2 2 2 2 4h2l1 5-11-9a153 153 0 0 0-142-25h-10l-2-1-1-3h2v-2l3-3 2-1 3-1 3-1h3q17-6 35-6l2-15v-8l-6-4q-7-3-9-11-3-10 2-19 13-17 31-8m88 104 4 1-1 2-3-1z"/><path fill="#f18723" d="m559 511 2 1q13 9 16 23l1 9-1 3q1 12-8 20-17 11-37 9-6-1-12-5-2-4 0-9l17-5v-1l-3-1h-5l-2-1q-7 0-13-5l-2-6 3-6q12-4 25-4v-2h-3l-12-2-3-1q-7-1-10-7v-6c11-11 34-11 47-4"/><path fill="#15567e" d="M738 996h58v17h-39v15h30v16h-30v18h39v16h-58z"/><path fill="#f29127" d="M564 443q19 4 28 19 12 18 17 38l1 3c4 16 4 36-4 50q-8 14-23 18h-5l4-7q8-15 3-31-2-9-8-17l-3-6q13 1 23 9l3 5q0-9-7-16-7-5-16-6h-14l1-45z"/><path fill="#f2f5f6" d="m530 276 2 1 3 2q11 8 12 20l1 4-1 3q0 12-8 20-11 9-25 8-11-1-19-9l-5-8-1-2q-4-11 0-23 6-13 19-18 12-3 22 2"/><path fill="#f1f3f5" d="M421 275q13 7 17 20 3 14-3 25-7 11-18 14h-5q-13 2-22-6-10-10-10-25 0-12 9-22 15-13 32-6"/><path fill="#99c3d2" d="m366 219-6 10h-2v3l-5 11-5 11a132 132 0 0 0-12 55c-1 28 5 57 23 79l2 4 2 1 5 4q7 6 17 8v1l-11 2-4 1h-3l-3 1-5-1-5-5-3-3q-12-12-20-27l-1-2c-14-27-15-62-6-91q11-32 35-57l2-2q3-4 5-3"/><path fill="#f2f5f6" d="m517 633 4 1-1 2q-9 30-6 63a632 632 0 0 1-3 77q-4 22-17 39l-4 1 2-14a221 221 0 0 0 4-59l-1-32c-2-25 0-52 16-72z"/><path fill="#d9e4ec" d="M578 239q7 2 9 9l1 3q6 8 9 17l1 2c11 26 14 63 3 90l-1 4-5 9-1 3-14 17-2 3-14 11q-4 2-6 5v5h-1l-1-9h-2v-2h-31v-2h2q20-4 33-17h2l1-3 4-4a99 99 0 0 0 27-54l1-25q0-21-6-40l-1-3-6-14z"/><path fill="#f3941a" d="m311 412 2-1q10 1 18 7 8 9 8 21v4l-2 6h-7l-9-8 1 3c1 12 1 12-2 17l-9 1-5-5-4-4-3-3v11q1 3-2 5-2 3-5 2-7-3-10-10l-2-4-1-2q-5-11-1-23 5-9 14-13l2-1q9-4 17-3"/><path fill="#0e446b" d="M418 996h72v16h-26v66h-19v-66h-27z"/><path fill="#1d415b" d="M586 443q15 12 23 29l2 3c10 21 16 49 8 72l-7 13-4-2-1 1-7 4h-2l-2 1 2-2q9-9 12-21l1-2c4-26-5-54-19-76l-2-2-1-2q-2-5-7-8l-1-1v-3h-3l-4-2-7-3h-4v2l-2 58-12-3v-59l6 1-4-8c12-4 25 3 35 10"/><path fill="#05264c" d="M300 406h2l4 1-2 1 4 1h5l2 1q7 0 12 4l3 1 4 4v3h2l4 4q3 12 0 23l-5 2-6 11q-4 8-12 11h-10q-4 0-7 4-9 3-18 0-6-3-9-9v-2l-3 1-19 11-2 1-4 2-2-1 1-4-2-1 2-4-4-1v2q-3 3-7 3v2l-10 4v-3l2-1 27-16 17-9v-2q-4-15 4-29c5-8 17-18 27-15m-8 10-2 1q-10 5-13 15-3 17 8 31 2 3 6 5l6-1q3-5 2-10v-7l3 3 2 2 4 5q5 3 10 2l3-3q2-9 0-18l2 2c5 5 5 5 11 7q3 0 5-4 2-13-5-24-5-7-14-10-15-2-28 4"/><path fill="#f6f7f8" d="M597 1012q9 5 14 15 3 13-4 25-5 7-13 11-10 2-19-3-10-8-11-21-1-12 6-21 11-13 27-6"/><path fill="#095481" d="m425 727 5 1 3 1q-4 4-9 5l-29 17c-25 16-25 16-32 16l-1-35-9 2q3-9 12-13l2-1 2-1c16-7 40 2 56 8"/><path fill="#104b70" d="m489 232 18 1h12c10-1 21 7 29 13 18 13 29 34 34 55q4 24-11 43l-2 3a47 47 0 0 1-37 14h-37l-106-1v-1l155-1-1-5-9 1q4-3 10-4 9-2 16-9l2-2q11-13 9-32-1-27-22-47l-2-2q-14-13-33-17l1 1-2 4 2 1h-16l1-3-1-2-26-1v-1l31-1-7-1-2-4-6-1z"/><path fill="#093b61" d="M283 734q4 1 7 4l2 1 2 2 12 9 14-15 10 5 1 1 16 12q-2 7-8 13l-2 2-1 2-2 2q-4 3-9 2l-9-6-4-4-2-2-6-2-2 2-12 12q-5 0-9-4l-2-2-2-2-2-2q-6-4-8-10l2-3z"/><path fill="#0f466a" d="M540 273q7 5 10 13 0 4-3 7h2l2 3v-6q5 10 3 22-3 15-16 24-14 9-32 4l-5-2-4-2q-12-7-16-22t3-30q10-14 27-18 16-2 29 7m-47 11q-8 12-5 27 2 11 11 18l2 1 3 2q12 4 24 1 13-6 18-19 4-13-2-25-7-12-21-16-18-2-30 11"/><path fill="#1f4b6c" d="M580 528h3q3 9 2 17v8q0 3-3 5v4l-4 9 5-2 3-1 5-2 10-5 3-1 3-1v-2l4 1 1 3q-14 18-36 20h-10l-11 2h-6v125h-1l-1 91h-1V587l1-8 3-1-4-2 3-1c9-2 16-3 22-11h4v-3l2-5 1-14v-8z"/><path fill="#0b2d4f" d="M320 293h1v3c-3 36 0 69 24 98l15 14-3 3q-5 2-10-2c-10-8-21-21-25-34l-5-2-7-6v-2h-2c-5-4-5-4-5-8v-2l3 1v3l10 2-1-3-1-4v-2q-4-14-3-29v-4c0-8 0-8 2-12l2-2q3-4 3-9h2z"/><path fill="#043059" d="m379 348 5 3h24l119 2h2l15-1v6q-12 2-25 1l-125 1h-3q-5 0-9-3h-5v-4l2-1z"/><path fill="#0c304d" d="m572 441 2 2 5 4q4 0 5 5l6 5-1 2-1-1q-10-10-24-15v3l1 12v2l-2 42 2-1q16-2 29 7 7 5 7 15v2l-6-7q-9-6-21-8l1 2q15 19 12 42l-5 11h-1v-7l1-1q3-3 2-7v-8l-1-14h-3l-1 12q1 13-4 24h-3l3-7q4-14-1-29l-3-5-1-2q-8-9-20-13c-10-1-25-1-34 4l-4 6q2 5 6 8l2 2q-4 0-7-3-4-7-3-15l2 1h2l2-2c6-5 16-4 24-5h11v-4h4l1-2 1 3h3q3-18 3-37v-22l9 1z"/><path fill="#4e6a81" d="M282 890h67q6 0 7 2l-10 1h-67l1 67h342l3-1v-9l2-1v13H280l-3 1h351v1H276c0-74 0-74 6-74"/><path fill="#0e3f62" d="m523 285 2 1-4 6v5q2 3 5 2l9-1q2 3 1 6 0 8-6 15-6 5-13 5-8 0-13-7-6-6-5-16 1-7 7-13 7-5 17-3"/><path fill="#082a52" d="M417 286v3l-4 2v8l14-1c1 13 1 13-3 18q-6 7-15 7-7 0-12-4-7-8-6-17 0-9 6-13 9-8 20-3"/><path fill="#06335b" d="m426 270 7 4v2l2 1 5 5 2 2q8 16 3 31-5 13-17 22l-2 1-2-1v-1l-4-1v-3l4-3q10-6 14-18 2-14-6-26-7-9-19-12-14-1-24 9t-8 24q0 12 9 21 9 6 20 7h7v2q-13 3-25-2l-1 2h-3l1-3h-2v2h-3l1-2 1-7h-2l-2-5h-3v-3l-3 1 1-2v-9q-1-11 4-21l2-5h2l1-4-2-1 2-3h2v-2h12q12-3 24 1z"/><path fill="#043057" d="M439 230h51q15-1 31 3l-2 2-6-1-17-1 1 5h-62q-22-1-42 9l-2 1-8 5q0-6 4-10h3v-5l7-3 1-1q21-6 41-4"/><path fill="#0c3e64" d="m573 436-4 1 2 1-1 5-7-1v2l-2 58-12-3v-59l6 1-4-8q12-2 22 3"/><path fill="#dbe7ee" d="m611 285 4 3 2 1q12 12 14 28 2 21-11 37l-9 8h-2l2-10q5-33 0-67"/><path fill="#cfdde5" d="M314 285v5l-1 3-1 28v4q0 18 4 36-6-2-10-7l-2-3q-12-15-9-35 3-16 16-28l2-2z"/><path fill="#224a68" d="M224 724h1v2l-2 29h-2l-1-12-3 1v3l-2 7v11h-2l2 19v2l1 3v2l1 2 2 1-1 2h5q3 4 2 9l6-2 1 6 7 1 1 3h-2v2h3l5 2h3q5 0 8 2l5 2 2-1v2a103 103 0 0 0 31 2q13 1 24-2h15l-11 4h-2c-29 5-65 4-90-12q-17-12-20-30-3-21 2-40l1-3q4-9 10-17"/><path fill="#1c3f5c" d="M435 373q4 2 6 5 9 9 22 8 12 0 22-7l2-3q2-2 5-2l4 2q0 6-4 11l-12 7-2 1q-17 6-35-1-9-4-13-12l1-8z"/><path fill="#1c3d55" d="m162 1110 1-1h19v4h-7v18h-6l-4 3-4-4-2 1-10 1-7-7v-6q0-4 2-7c6-5 12-3 18-2"/><path fill="#204f6d" d="M634 341c1 4 1 4-1 8q-9 18-29 25l-3 5c-9 15-24 34-41 40h-2v-9l7-5q18-12 28-30l4-4v3l3-1 1-2 5-1 8-2v-6l-4 1 2-2 11-12 2 2 3 2z"/><path fill="#053056" d="m376 719 1 40 1-4h7l2-3 4 1-20 11-8 3-1-35-9 2q4-9 12-13c5-2 5-2 11-2"/><path fill="#cddde5" d="M468 115q7 3 9 10t-3 13q-3 5-9 5-5 1-11-2-7-4-6-12 0-7 4-11 7-7 16-3"/><path fill="#1f4f6f" d="M587 729q8 2 12 8c5 8 14 19 13 29l-1 3q-3-5-4-11l-1-3-3-1q-4-3-3-8l-1-3-3-2-1-3-2 1-5 1q-3 2-4 6v3l-3 13 2-1 5 2 2 5 5 8 1 2 4 3-1 3 2 1v3l-1 12-2 5-8 14 1 3-4 2-2-2-2 2-6 6h-3v2l-4 1q1-5 4-7l2-2 4-1 1-2 4-3 2-4 4-5q7-9 5-22-5-13-15-23l-2-2-3-3q-2-4 0-10l7-12 1-2zm1 11 2 1h-3z"/><path fill="#22445d" d="M738 996h58v17h-39v15h30v16h-30v18h39v16h-58zm2 1v80h55v-13l-38-1-1-6v-2l-1-3v-9l31-1v-13l-30-1v-16l38-1v-14z"/><path fill="#144566" d="M604 469h2l2 7h3c9 24 16 48 7 73q-1 4-5 7l-4-2q0-4 2-6v-2l4-6-1-1v-4a94 94 0 0 0-5-35l-7-28h2z"/><path fill="#1b3c55" d="M199 1147h14v3h2v-3h2v2l3-2c9-1 9-1 12 2q4 4 3 9l-3 7q-7 3-15 2l-2-1h-3l-1-4h-3l-1 2h-2l-1-5v8h-5z"/><path fill="#0f456a" d="M492 1036h41v15h-41z"/><path fill="#207dac" d="M454 425h83v73l-15 3-9 5-6 2-4 4h-2v2h-3l4-6 1-2 2-2h5q4-3 3-8l3 1-1 2 3-3 2 1h9l3-1h2v-68l-16-1-20-1h-34l-1 2h-15l-5 2v-3h-17l-18 3v-2h-3l-4 1h-2l-12 1-2 1-10 1-9 3v-2l-5 1-1 2-2 1-1 2h-2l-1-2-2 4h-2l-1 4v-9q7-4 14-5l3-1 25-3q32-3 63-2"/><path fill="#0f2f49" d="m520 528 20 3v2l-3 1q-12 1-24 5l2 10q6 4 15 5l3 1 8 1-10 4h-3l-8 2c0 5 0 5 2 9q12 7 25 3l17-5 2-1 2 1q-19 12-42 7l-4-1-2 5-5-2q-5-6-4-14 1-7-3-12l-2-2q-4-6-2-13l6-3 1 3 17-5v-1l-8-2z"/><path fill="#12496c" d="m573 322 3 1 1 6 2-6q2 6-2 11-9 18-27 25a101 101 0 0 1-30 2h-25l-106-1v-1l155-1-1-5-9 1q4-3 10-4a37 37 0 0 0 25-22z"/><path fill="#e9eff2" d="M346 1109h29v5h-6v4l1 13-4 1h-3l-1 2-4-1v-2h-4l-1-5-9 1-1 4h-5l5-14z"/><path fill="#1770a3" d="M290 234h23v25h-23z"/><path fill="#1e80b2" d="M291 178h23v25h-23z"/><path fill="#185072" d="M611 294q5 12 3 26v2a175 175 0 0 1-4 40l6-2c-1 7-1 7-4 10l-11 1-2 4-3-3 2-8 5-16 1-2 3-26v-11l4 2z"/><path fill="#1b4c69" d="m524 186 9 4 2 1q17 8 30 20h-7l2 2 2 2 2 2 2 4h2l1 5-11-9q-19-17-45-24l-5-4v-2h-3v-2q10-3 19 1m38 27 4 1-1 2-3-1z"/><path fill="#f2f5f6" d="M96 1013h13q7-1 12 3 3 6 2 11-4 7-11 8H96z"/><path fill="#093b60" d="m499 270 3 1q-3 6-7 8h-2l-1 2-3 5q-4 13 0 27 5 13 17 19l3 3 4 2-1 2 19-1q-6 5-16 3-7 1-14-3l-4-2q-12-7-16-22t3-30q6-8 15-14"/><path fill="#113a59" d="M567 503h10q7 0 12 4l4 2-2 2h-9l-2-1h-6l1 2q15 19 12 42l-5 11h-1v-7l1-1q3-3 2-7v-8l-1-14h-3l-1 12q1 13-4 24h-3l3-7q5-16-3-31l-1-3-2-5-4-4v-2l-3-1v-4h2l2-1z"/><path fill="#133151" d="M300 406h2l4 1-2 1 4 1h5l2 1q7 0 12 4l3 1 4 4-1 3-1-3-4-2-2-1q-7-5-15-3h-2q-10 0-17 4l-2 1q-9 5-12 14-2 13 4 24l1 6q-8-11-8-25h-2v2l-5 8q-3-17 8-30c6-6 16-14 24-11"/><path fill="#184666" d="M516 656h1v41l1 5v15l-1 31v9l-1 6 1 5-2 7-2 2q-3 8-1 16h-2l-1 3-4 6-1 3-4 6-4 4-1 3q-3 2-3 6l-4-2 1-4 3-1a102 102 0 0 0 20-45q3-19 2-40v-2l-1-52v-3c0-16 0-16 3-19"/><path fill="#0c3a5e" d="M407 186h-2l-1 5 5 1-11 7q-13 6-24 14l-6 1-3-1 1 4-2-1-5-1-2 1c6-14 29-23 41-29 6-2 6-2 9-1"/><path fill="#175c87" d="m513 577 2 1 3 1 2 2 17 3v192h-1v-10l-1-2v-6l-1-5v-34l1-57-1-15 1-47v-9h-2v-5h-2l-9-2-7-2v2h-2l-1-6z"/><path fill="#f1f3f6" d="m689 1106 6 2v23h-7v-4l-2 2q-5 4-12 2l-3-2v-3l4-1 1 1h5l1-3-3-1q-6 0-7-4t1-8q4-2 8-1h6v6l-1 2 2-1v-4z"/><path fill="#edf0f2" d="M781 1109h3l6 1q3 5 2 11v4q-1 6-6 9l-2 1-7-5-2-1-4-5q-1-7 3-13z"/><path fill="#1b3e58" d="M304 996h19v82h-19v-35h-35v-1h36v35h16v-79h-15v27l-1 4h-36v-2h35z"/><path fill="#13344f" d="M76 996h40l-2 2H78v79h16v-28c7-2 7-2 12-1q4 2 4 5v3h2q4 4 5 9l2 1 3 8q2 2 7 3h16v1c-18 3-18 3-24-1l-9-16-4-6-1-3c-3-3-3-3-11-3v29H76z"/><path fill="#1f3d5a" d="m358 808 2 1h10l6-1v28h-1v-21h-4v-2l-4 3v52q0 9-4 17l-6 4 4-7 1-10v-3l1-20v-34l-4 1-23 6v-2q5-3 12-3l3-1 2-4 2-2h3z"/><path fill="#324f66" d="M471 1108q4 2 6 5 4 7 1 13-2 5-6 6-5 1-10-2t-5-10q0-6 4-10 4-2 10-2"/><path fill="#1e3e58" d="M298 1109q5 0 8 2 4 3 4 8 0 6-3 10-5 4-12 3-5-2-7-8-2-8 4-13 2-2 6-2"/><path fill="#23425c" d="m112 1109 6 6q2 7-2 14-3 3-10 3-5 0-8-5-3-6-1-13 5-8 15-5"/><path fill="#14304f" d="M409 271h8v2h2l3 1 1 2-3-1q-12-3-24 2-10 6-15 17-2 15 5 29 7 8 17 10l7 1h7v2q-13 3-25-2l-1 2h-3l1-3h-2v2h-3l1-2 1-7h-2l-2-5h-3v-3l-3 1 1-2v-9q-1-11 4-21l2-5h2l1-4-2-1 2-3h2v-2h11z"/><path fill="#1b3852" d="m401 1109 5 5 1 1q2 8-2 14-5 5-12 3l-7-7q-2-7 2-13 6-5 13-3"/><path fill="#f0f3f6" d="m549 440 6 2 1 8v35l-1 15-6-1z"/><path fill="#bbc5cd" d="M290 1145q6 0 8 4v-2h18v4h-6v16h-5v-16h-5v2h-2l3 14-5-1v-3l-9 1-1 3h-4l4-14 1-2z"/><path fill="#1a4a69" d="M465 108c10 1 10 1 14 5l2 3 2 3q3 9 0 19-4 8-11 11l-4 4v6h-1v-3l-3-5v-2l-4-4-1-2h2q8 0 13-6 3-5 2-12l-6-9v-2l4 1-1-4-8-2z"/><path fill="#eaeff1" d="m554 833 5 5q-23 13-50 13h-3q-6 1-12-2v-4h4q23-1 45-6l7-1 3-3z"/><path fill="#05244b" d="m334 422 4 1q6 13 2 26l-5 2-5 8q-4 8-12 11h-9v-5l1-2-2-1v-2l-3-1-1-4 3 2v2q4 3 9 2h4q2-10 0-21l4 3 2 1 4 4h7c3-5 2-14 0-19z"/><path fill="#0e3f62" d="M331 163h19v19h-19z"/><path fill="#1d3d57" d="m122 1109 14 1q3 2 2 6v2l1 6q1 3-2 5c-4 4-10 2-15 2z"/><path fill="#073a5e" d="M324 203h19v18h-19z"/><path fill="#254661" d="m340 1147 7 5q2 7-2 13-6 4-13 2l-5-5q-2-6 1-12 5-4 12-3"/><path fill="#203c55" d="M470 1148q4 3 5 8-1 7-5 10-5 3-10 1l-6-7 2-10q6-5 14-2"/><path fill="#1f415b" d="M554 1109q6 1 7 3l1 3 2 3 1 2 2-4 2-2 2-5h6v22h-5l-1-11-4 7h-4l-3-6-1 10h-5z"/><path fill="#092c50" d="M330 407q9 5 14 15h-2v2l-1 2-2 1-1-4h-2l-3-4q-2-4-7-5l-15-3-2-1h-3l-4-4-1 2-3-2c4-8 25-2 32 1"/><path fill="#2d4860" d="M514 1147c11-1 11-1 14 1l3 4 1 1c1 7 1 7-2 11q-7 5-16 3z"/><path fill="#1a3750" d="M407 1147q5 2 6 5 2 7-2 13-5 4-12 2l-5-5q-2-7 2-12 4-4 11-3"/><path fill="#1f4560" d="M313 1109q6 1 7 3l1 3 2 3 1 2 3-5 1-2 1-2 2-2h5v22h-4v-12h-2l-1 3-3 6-4-1-3-6-1 10h-5z"/><path fill="#223e57" d="M739 1147q4 0 7 3 3 4 2 8l-4 8q-5 3-10 1l-5-5q-2-7 2-13 3-3 8-2"/><path fill="#d9e0e7" d="M167 1109h15v4h-7v18h-6l-4 3-1-1-5-4 1-2q3-3 2-8v-2l-2-6z"/><path fill="#07264b" d="m300 454 4 1 2 4 2 1v2l3 1-2 6 14-1 2-4h3q-4 6-11 9h-10q-5 0-7 4-9 3-18 0-6-3-9-9v-3l3-1v2h2l4 5q3 4 8 3h5l7-1v-3l-5 1-1-2 1-1q4-4 3-8z"/><path fill="#2a465d" d="m482 1109 14 1q4 4 2 8 1 2-3 5l5 8h-6c-4-5-4-5-4-8h-3v8h-5z"/><path fill="#207ba8" d="M244 171h16v18h-16z"/><path fill="#32516a" d="M77 1109c11 0 11 0 15 3l1 4v4l-3 2 1 2 3 7h-5c-4-5-4-5-4-8h-3v8h-5z"/><path fill="#16405c" d="M595 466h2l2 3 5-1v4h-2l1 2 2 9 3 11c10 29 10 29 6 45l2 1-2 2q-3 4-3 8l-1 4 3 1 2-2q0 4-4 7l-1-2-4 2-3 2-3 1-2 1-2-1 3-2q11-9 12-25 3-36-16-68z"/><path fill="#113758" d="M435 373q4 2 6 5 5 6 12 7v2h-3l-1 3h-2v2a46 46 0 0 0 19 2l13-1q-6 5-16 4-17 1-30-11-4-4-3-10 1-3 5-3"/><path fill="#eef1f1" d="M199 1147h14v3h2v-3h2l1 3-1 2q-3 3-2 8l2 5-4 2-2-5h-3l-1 2h-2l-1-5v8h-5z"/><path fill="#1c3a58" d="m436 1147 13 1q2 5 1 9l1 1-1 8q-7 2-14 1z"/><path fill="#1c3b55" d="M257 1147h5l3 4 1 2 1 4h2l1-2 3-7h5v19h-4l-1-10-4 7q-4-1-6-5l-1 8h-5z"/><path fill="#274964" d="M624 1147h4l3 9 4-9 4 1 3 8 3-9h4l-5 20h-4l-3-8-4 8h-4l-2-7v-2z"/><path fill="#34556e" d="M750 1109h5l4 6 2 3 2 3 1-12h4v22q-6-1-7-3l-2-3-2-3-1-2-1 11h-5z"/><path fill="#2f4d66" d="M510 1109h5v8h8v-8h5v22h-5v-9h-8v9h-5z"/><path fill="#0b375b" d="M567 503h10q7 0 12 4l4 2-4 2h-7l-3-1h-6l1 2q3 4 3 7h-2v3l-4-2v-2h-2l-4-4v-2l-3-1v-4h2l2-1z"/><path fill="#1e415b" d="M603 1109h5l4 6 2 3 2 3 1-12h4v22q-6-1-7-3l-2-3-2-3-1-4h-2v13h-4z"/><path fill="#24455e" d="M674 1147q6 1 7 4l2 6h2l1-3 3-7h5v20h-4l-1-9-1 3-2 2h-4l-3-6-1 10h-4z"/><path fill="#173955" d="M411 1109q6 1 7 3l2 3 2 3 2 4 1-13h4v22h-5l-4-6-2-3-2-3-1 12h-4z"/><path fill="#316282" d="M676 1015q6 7 6 16l-3 5v8h-3l-4-5-2-3-2-3-3-4-1 49h-1v-51l3-1 2 3 3-1 1-2q1-3 5-4v-2h-2z"/><path fill="#25455d" d="M639 1109h5q7 10 8 22h-5l-1-4-9-1-1 5h-5z"/><path fill="#1b3c57" d="M346 1109h6l1 2 5 15 1 5h-5l-1-5-9 1-1 4h-5l5-14 1-2z"/><path fill="#e5ebee" d="m379 1020 6 12 1 2 3 10h-19c6-21 6-21 9-24"/><path fill="#e9edf1" d="m196 1020 4 7 1 2 1 3 1 3 3 9h-19l3-12 1-2 1-2 1-2z"/><path fill="#183b55" d="M587 1109h5l9 22h-5l-2-5h-9l-1 5h-5z"/><path fill="#1b3d55" d="M232 1109h5l9 22h-5l-1-2-3-3h-7l-1 5h-5z"/><path fill="#194b6b" d="M589 393q0 5-4 7l-2 2-1 2c-7 6-15 14-24 15v-9l10-7 6-5 3 2 1-3 1 2 4 1-1-4h2z"/><path fill="#0f2a48" d="M419 230h70q16-1 32 3l-2 2-9-1h-30l-6-1-9 2v-3l-4 1h-21l-11-1h-4z"/><path fill="#1a75a3" d="m464 426-1 2h-15l-5 2v-3h-17l-18 3v-2h-3l-4 1h-2l-12 1-2 1-10 1-9 3v-2l-5 1-1 2-2 1-1 2h-2l-1-2-2 4h-2l-1 4v-9q7-4 14-5l3-1q48-7 98-4"/><path fill="#31495f" d="M351 1147q6 1 7 3l1 3 2 2 1 2 1-10h5v20h-5l-3-4-2-3-1-4h-2v11h-4z"/><path fill="#415a6f" d="M532 1109h5l1 17h6l1-17h5v11q1 5-2 9-3 3-8 3h-2q-4-1-6-5z"/><path fill="#234662" d="M735 1109h6l7 22h-5l-1-5-8 1-2 4h-4q2-12 7-22"/><path fill="#2f5069" d="M793 1109h14v4h-9v4h7v5h-7v4h10v5h-15z"/><path fill="#133958" d="M238 1147c11 0 11 0 14 2v8l-3 1 5 9h-5c-4-5-4-5-4-8h-3v8h-4z"/><path fill="#96becf" d="M456 117v6q-2 7 1 14l5 2q7-1 10-5l4-2q0 6-4 8-5 5-12 3-5 0-9-4-4-7-3-15 3-7 6-7z"/><path fill="#24435e" d="m496 1147 13 1q2 5 1 9l-3 1 2 3 3 6h-5l-4-5-3-3v8h-4z"/><path fill="#224059" d="M122 1148h13q3 2 2 5l-1 5h-3l1 1 2 2 1 2 1 4h-5c-4-5-4-5-4-8h-3v8h-4z"/><path fill="#25455e" d="M589 1147h5l4 5 2 3 1 2 1-10h4v20q-6 0-7-4l-2-3-2-3-1-2-1 12h-4z"/><path fill="#22435d" d="M543 1147q6 1 7 3l2 3 2 3 1 2 1-11h4v20q-6-1-7-3l-2-3-2-3-1-2-1 11h-4z"/><path fill="#1f4560" d="M175 1147h4v20h-5l-3-4-2-3-1-2-1-1-1 10h-4v-19h5l4 5 2 3 1 2z"/><path fill="#122d47" d="M247 1109h5l1 17 5 1q3-4 3-10v-8h4v11c0 7 0 7-2 10q-4 3-10 2-4-2-6-6z"/><path fill="#355064" d="M84 1148q3 0 5 2l-1 5-1 2v2l3-1 1-3h3v2l-1 2-1 3 1 5H82q-3 1-5-2 0-5 2-9l-1-1v-5q2-2 6-2"/><path fill="#3378a0" d="M559 272c8 7 12 20 13 30q3 23-11 39-12 12-28 11h-6l2-2h5l2 1h2v-3l8-1 5-1 2-5 2 1-1 2 1-1 2-2 2-2 3-2 2-4h2l-1-4 3-1v-8h2v-2l-1-2v-3l1-4q1-14-8-27h-2l-1-4h2l-2-3z"/><path fill="#257ba6" d="M265 213h15v14h-15z"/><path fill="#274156" d="M205 1109h2l5 2-1 5-2-1-8-1q-2 2-2 6l1 6 7 1 3-3 4 2-4 5-9 1-7-6q-3-7 1-12t10-5"/><path fill="#1d4b6b" d="m423 758 1 2-7 3-1 3-3 3-1 2-2 1-3 1-1 3h-3q-6 0-10 4l-5 1-1 3-7 1-1 3h-2l-9 2h-4l-1 2q-6 5-14 3l-2-2 2-1a200 200 0 0 0 74-34"/><path fill="#e39a4b" d="M574 510q13 1 23 9l-1 2-1-1q-8-6-17-7l3 2 5 12v2l2 4q2 6 1 12v3q1 7-3 12l-2 4-1 3h5v-5h7l1-3h3v-2l4 1q-10 12-25 13l4-7q8-15 3-31-2-9-8-17z"/><path fill="#2a445b" d="m576 1147 3 2-1 3-3-1q-4 0-7 2v9h8l1-3h-5v-4h8v10q-5 4-12 2l-6-7q-1-7 4-12 5-2 10-1"/><path fill="#304e66" d="M146 1148h6l7 19-5-1v-3l-9 1-1 3h-4l4-12v-2z"/><path fill="#1c3b54" d="M416 1147q6 1 7 3l1 3 5 5v-10h3v19q-6-1-7-3l-1-3-2-3-1-2-1 11h-4z"/><path fill="#2c4c65" d="M609 1147h13v4h-8v3h6v5h-6v3h8v5h-13z"/><path fill="#30526b" d="m683 1109 3 2-1 3h-8v2l3 1 7 5v6l-4 3q-7 2-12-2v-3l4-1 1 1h5l1-3-3-1q-6 0-7-4l1-8q4-3 10-1"/><path fill="#1d3a54" d="m482 1147 5 1 1 2 4 11 1 6h-4l-1-4h-9l-1 4h-4z"/><path fill="#28455f" d="M658 1147h13v4h-9v3h7v5h-6v3h8v5h-13z"/><path fill="#284963" d="M703 1109h7l2 4h-9l2 4 7 3 1 8q-2 3-6 3-5 1-9-2l2-4 7 1 1-3-3-1q-4-1-7-5-1-7 5-8"/><path fill="#26415a" d="M698 1147c10 0 10 0 14 3v7q-3 3-8 3h-2v7h-4z"/><path fill="#2f5472" d="M782 1109h2q3 0 5 3l-1 4h-2v-2h-7l-2 4v4l2 4c5 0 5 0 9-2l3 3q-4 4-9 5-6-1-10-6-2-5-1-10 3-7 11-7"/><path fill="#1f3f58" d="m663 1109 5 2-1 3-8-1v4l4 1q4 1 6 4c0 6 0 6-3 9h-7l-5-2 2-4 7 1 1-2-2-1-2-1-2-1-3-2v-8q3-3 8-2"/><path fill="#1b4e73" d="M252 997h16v30h-1v-28c-7 0-7 0-13 2v9l-1 26v40h14l-1-4v-27l2-1v33h-16z"/><path fill="#1b4c6d" d="m602 808 5 2c0 14-11 30-20 40l-2 2v-10h2l1-2h3l1-2v-3l1-3 2-5h3v-2h2v-3l2-6z"/><path fill="#1a405d" d="m223 756 4 9q7 16 21 22l2 1q12 5 23 7l-3 3-4-1h-2l-5-2-1 2h-2v-4h-2l-5-2-6-1v-2l-3-1v-2h-2q-3 0-5-4v-3h-2v-2l-3-1q-4-2-5-7z"/><path fill="#dba64c" d="M311 412h2q10 0 18 6 8 9 8 21v4l-2 6h-7l-8-7q3 0 5 2l7 1q4-5 3-12l-4-8-2-5h-4v-3q-18-6-34 1-5 3-9 8l-4 2q2-8 10-11 10-5 21-5"/><path fill="#426079" d="M766 1147h12v4h-8v3h6v4h-6v4h9v5h-13z"/><path fill="#174a71" d="M344 794q-5 3-11 2v2q-10 3-22 2h-33l-1-3-3-1h4z"/><path fill="#166d99" d="m513 577 2 1 3 1 2 2 16 3v114h-1l-1-59 1-39v-9h-2v-5h-2l-9-2-7-2v2h-2l-1-6z"/><path fill="#d6994f" d="M559 511h-6l-12-1h-3q-13-1-24 6l1 6q8 5 17 6l9 2v4h-2l-26 7v-2q13-7 27-6v-2h-3l-12-2-3-1q-7-1-10-7v-6c11-11 34-11 47-4"/><path fill="#ebeff2" d="m672 1108 1 7q0 3 2 5l7 3-1 4-10-1v3l-4 2v-2l1-2v-3l-1-4-8-3v-4h8v-2l-2-2z"/><path fill="#0c3c5f" d="m462 386 2 1 9 1 6-2v3l-4 2-1-1-2 2q-4 4-10 3h-2q-6 0-13-3l-1-3h3l1-2z"/><path fill="#0b456c" d="m547 317 3 3q-2 9-9 14-13 8-29 6v-3h4l13-2 1-2 5-1 2-1h2v-2h2l3-8 1-3z"/><path fill="#324a61" d="M781 1147h12v4h-8v3h6v4h-6v4h8v5h-12z"/><path fill="#173f62" d="M549 357v2a92 92 0 0 1-29 2h-25l-106-1v-1l156-2z"/><path fill="#0c456b" d="m539 240 5 4h-7l-1-4-4 4v2q-9 0-17-7l-1-2 3-3q13-1 22 6"/><path fill="#13517c" d="m538 948 33 1h4l7 2h-90v-2h27z"/><path fill="#183c5c" d="M287 313h2l1 5h2l1-2q2 3 2 8v6h1l1 8h-3v3h-2v-2l-3 1q-2-8-2-17z"/><path fill="#4c86a2" d="M355 130h13v13h-13z"/><path fill="#488ba9" d="M318 137h14v12h-14z"/><path fill="#205272" d="M516 656h1v36l1 13v9l-1 3v6h-1v-11h-2l-1-37c0-16 0-16 3-19"/><path fill="#1b4769" d="m553 888 7 1v1l67 1v30h-1v-27h-31l-25-1h-3c-10-1-10-1-14-5"/><path fill="#1b4867" d="m499 178 13 4h2l7 4h-2l-14-1v2h3v2l4 2-15-3h-2l-5-1 7-2-4-3 2-1-7-2q6-3 11-1"/><path fill="#183852" d="m289 1147 5 1 2 6-6-1v2l-2 4h6v-2h2l1 2 3 4 1 4-5-1v-3l-9 1-1 3h-4q0-11 7-20"/><path fill="#1c3d57" d="m191 1147 2 1h2l-1 4-7-1v3h2l7 4q1 4-1 8l-7 1h-4l-2-4h10l-3-4-2-1-2-1-2-1v-7q3-2 8-2"/><path fill="#264d66" d="M587 729q12 4 17 16c9 16 9 16 7 24q-3-5-4-11l-1-3-3-1q-4-3-3-8l-1-3-3-2-2-6-5-1q-6 4-7 10l-2-2z"/><path fill="#26465d" d="M357 1109h18v4h-7v18h-5v-18h-6z"/><path fill="#13517b" d="M290 904h1l1 33v7l-1 5h2v-2h2v2h54l-1 2h-58z"/><path fill="#145b86" d="M376 625h1v60l17-1h12q9 2 17 7l2 1 2 1h-7l-3-1q-19-9-41-3l-5-2h5z"/><path fill="#1a3953" d="M441 1109h15v4h-11v5h7v4h-7v9h-4z"/><path fill="#116a9c" d="m347 450 1 3h3l-2 4h-4v5h-2l-1 2-2-3-2 1-9 3-1 7h-2q-3 0-5 2l-4 1c-6 0-6 0-11 3l-3-3v2l-3-1 4-4h6q8 1 14-4l2-3q4-5 10-5l6-4h2v-2z"/><path fill="#f0f3f6" d="M119 1104h3v27l-3 1-2 2-3-2-4 1v-2l5-3q4-6 2-13-2-4-5-6l2-1q3 0 5-4"/><path fill="#2b3d50" d="m277 890 79 2-10 1h-28l-14-1h-27z"/><path fill="#252c2b" d="m572 441 2 2 5 4q4 0 5 5l6 5-1 2-1-1q-10-10-24-15v3l1 12v2l-2 42h-1l1-60 9 1z"/><path fill="#1e4360" d="m801 1147 5 1-1 4h-5l7 5q1 5-1 9-4 2-9 1l-2-2 1-4 7 2q-1-4-6-6-2-2-2-5-1-5 6-5"/><path fill="#062e52" d="m520 528 20 3v2l-3 1q-12 1-24 5l1 9 4 4h-6l-1-7-4-1-1 3q-2-2-1-5v-5l5-3 1 3 17-5v-1l-8-2z"/><path fill="#5188a4" d="M291 178h23v25h-23zm2 1v22h19v-22z"/><path fill="#2989b8" d="M283 152h12v13h-12z"/><path fill="#322620" d="m334 422 4 1q6 13 2 26-4 3-8 2l-9-5v14h-2v2q-4 3-10 2l-3-2v-2l-3-1-1-4 3 2v2q4 3 9 2h4q2-10 0-21l4 3 2 1 4 4h7c3-5 2-14 0-19z"/><path fill="#16486c" d="M620 509h1q5 22-4 43l-4 4-4-2q0-4 2-6l1-4h2l4-2 1-18v-10h-2v-2h3z"/><path fill="#253440" d="M565 501q16-2 29 7 7 5 7 15v2l-6-7q-9-6-19-7v-1h15v-2h-3l-3-3-6-1h-3l-3-1h-9z"/><path fill="#385770" d="m131 1111 7 1-1 14-7 1h-4v-5l4-2-4-2v-5q2-2 5-2"/><path fill="#97b6cb" d="M295 314h1v2c2 14 2 14 7 28l1 3h2l4 5h2l2-2 2 11q-6-2-10-7l-2-3a45 45 0 0 1-9-32z"/><path fill="#f3f5f7" d="M302 1113q4 3 3 8l-2 6-5 1q-3 0-5-4-2-6 1-10z"/><path fill="#254962" d="M607 999q14 6 20 19a47 47 0 0 1-7 48l-2-1 1-2 1-4h3v-3h2q3-10 2-22v-10l-3-1v-2l-3-8h-2l-1-3-7-6z"/><path fill="#113853" d="M268 1109h19v4h-8v18h-4v-18h-7z"/><path fill="#e6ecee" d="m107 1113 6 2v8l-2 4h-7q-4-3-3-7-1-7 6-7"/><path fill="#f6f7f6" d="M396 1113q4-1 6 3v7l-2 4h-7q-4-3-3-7-1-7 6-7"/><path fill="#ebeeef" d="M156 1113q4 3 3 7 1 4-3 7h-7q-2-2-2-6v-3q2-7 9-5"/><path fill="#a9cada" d="m626 337 2 3q-4 12-13 19l-2 2-4 1 3-18 1 4q5 0 9-4z"/><path fill="#ecf0f2" d="m207 1113 2 6-1 2 5 1-3 4-2 1-1 1-7-1q-4-5-2-11 3-5 9-3"/><path fill="#1c4c6d" d="m416 725 17 4q-4 4-9 6l-24 13-3-1 2-1 2-1 2-2 3-4 9-4 3-3v-2l-2-1 2-3z"/><path fill="#1f415b" d="M164 1109h18v4h-7v18h-4v-18h-7z"/><path fill="#0e3f65" d="M580 528h3q3 9 2 17v10l-2 1-1-4-3 1-1-10v-9z"/><path fill="#0d496e" d="M537 271q9 6 13 15v2l-2 2-2-1v-2h-2v-2l-3 1-2-3-5-5-2-1v-4l-1-2z"/><path fill="#11273c" d="M300 406h2l4 1-2 1 4 1h5l2 1q7 0 12 4l3 1 4 4-1 3-1-3-4-2-2-1q-7-5-15-3h-2q-9 0-17 4l-5 2v-2l3-2q5 0 5-5l-1-4z"/><path fill="#f1f3f5" d="M471 1113q4 3 3 7 1 4-3 7l-8-1q-3-4-1-10 3-5 9-3"/><path fill="#18365c" d="M365 560h1v2l1 113v9l2 8-4 1z"/><path fill="#1b3855" d="M350 227v2l-4 3q-5 3-7 9l-4 5q-5 6-5 13l-3 1-2 5-3 2q0-8 6-16l1-2c13-22 13-22 21-22"/><path fill="#3e5a74" d="M715 1147h5v15h8v5h-13z"/><path fill="#19364f" d="M713 1109h17v4h-6v18h-4v-18h-7z"/><path fill="#083259" d="m295 407 2 1-2 1v2l-3 5-5 1v3l-5 1-3-3-3 3-1-3c14-14 14-14 20-11"/><path fill="#36403b" d="M595 466h2l2 3 5-1v4h-2l1 2 2 9 4 13 2 6 1 4q2 8 1 17v6l-1 14h-2v-3q5-38-15-72z"/><path fill="#f5f9fa" d="m493 1106 2 1v3l-13-1v20l-1 4h-4l-3 1-1-4 3-2q4-6 1-13l-2-4 3-1 1-2 7-1q4 2 7-1"/><path fill="#19415e" d="M546 313q1 6-2 12l-3 4h-2v2l-9 2-1 4v-2l-3 1q-10 3-18-1v-2h3c11 0 19 0 27-8z"/><path fill="#255b7d" d="M290 234h23v25h-23zm2 2v22h20v-22z"/><path fill="#1c405d" d="M764 1109h4v22q-6-1-7-3l-1-3-2-2-1-2 1-2-1-3 1-2 5 7z"/><path fill="#0e5b89" d="m506 507 3 1-1 1q-4 5-4 12l3 7 1 2-2 5-2 6-1-3h-2l-1 4c0-5 0-5 2-8l1-2-1-2q-4-6-3-13l2-5h2l1-2z"/><path fill="#276283" d="m606 285 4 6 2-3-1 23h-2v13h-1l-1 8h-1v-15c0-17 0-17 3-23h-4v-8z"/><path fill="#0d4165" d="M577 442q10 2 16 9v3h2l-1 4-4 1-2-2-5-5-2-2v-3l-6-1z"/><path fill="#d48e48" d="M541 558h-2l-14 4-4 1-1 4 4-1-2 3q3 3 7 3h13l18-1q-13 7-28 5-6-1-12-5-2-4 0-9c15-6 15-6 21-4"/><path fill="#1c3c55" d="M518 272h2q6 0 7 2h-3q-16-2-27 8-10 12-9 28h-1c-2-19-2-19 3-26l1-3 7-5 2-2 1-1 4 1 2-1z"/><path fill="#f6f7f8" d="m338 1150 5 4v7q-2 3-6 2h-4q-3-4-2-9 4-5 7-4"/><path fill="#173854" d="M106 1048q4 2 4 5v3h2q4 4 5 9l2 1 3 8q2 2 7 3h16v1c-18 3-18 3-24-1l-9-16-4-7-1-2c-3-3-3-3-11-2l-1 27h-1v-28c7-2 7-2 12-1"/><path fill="#214b6a" d="m138 1012 3 1q3 11-1 22-4 8-13 11l-4-1 1-2 6-1 1-5 3 1 1-4h2l-1-2 1-6z"/><path fill="#073258" d="M504 537h1l1 9 1-2 4 1 1 7h3l6 2 5 1 3 1h2v1h-5v2l-6-3-8 4-1-2-3-5q-6-6-4-16"/><path fill="#1d3e59" d="M749 1147h4l3 6 2-3 2-3h4l-4 8-2 12h-4v-2q0-7-4-13z"/><path fill="#edf0f2" d="m97 1108 2 1v2q-3 9 1 17l1 2q-4 3-9 3l-3-1v-1h5l-1-1-2-2-1-2-1-2 1-3 2-1v-3q1-5 5-9"/><path fill="#19374f" d="M199 1148h13v3h-9v4h7v3h-7v9h-4z"/><path fill="#274761" d="M510 1109h4v9h8l1 3h-8v10h-5z"/><path fill="#214159" d="M471 1108q4 2 6 5 3 5 2 10l-3 4v-3h-2v-2l-1-2v-3l-2-3-8 2-2 1-2-4q4-6 12-5"/><path fill="#21587d" d="M701 997h16v43h-1v-42h-2v2l-12-1v48h-1z"/><path fill="#2b6083" d="m495 719 2 1v24h-2l-2-20-5 6h-2l-1 3-3 7-2-1 1-2 6-14q2-5 8-4"/><path fill="#e5eef1" d="M228 1151q3 2 2 5 1 4-2 7h-7q-2-1-2-6 0-4 2-6z"/><path fill="#ebf0f4" d="M465 1150q4 1 5 5 1 5-3 8-4 1-8-1-2-4-1-8 2-4 7-4"/><path fill="#304c62" d="M103 1148h16v2h-6v17h-5v-16h-5z"/><path fill="#1f3f56" d="M77 1109c12 0 12 0 15 3v5l-2-3-1 3-2-3-6-1v3l-1 6 1 1v8h-4z"/><path fill="#3b5b70" d="M795 996h1v17h-39v13h-1v-15h38v-14z"/><path fill="#27455c" d="M557 449h1v47l3 1v5l-5-1-1-17v-3l1-22v-4z"/><path fill="#143e5c" d="m449 136 4 4 4 2-1 2v2l2 2v3h2v4l-1 3v2l-2 1v-2c0-5 0-5-3-10l-6-3-4-4v-3h2l2-1z"/><path fill="#054671" d="m512 241 3 2-2 3 2 1h-16l1-3-1-2-26-1v-1l27-1h2q6 0 10 2"/><path fill="#183d57" d="M212 750h1v4l2 30v2l1 3v2l1 2 2 1-2 4q-9-14-7-31v-3z"/><path fill="#f2f5f6" d="M407 1151q3 4 2 9l-3 3h-6q-2-1-2-6 0-4 2-6z"/><path fill="#0a314e" d="M304 996h16v1h-15v7l1 17v4l-1 4h-36v-2h35z"/><path fill="#032247" d="m298 449 6 5-2 1-2-1v9q1 6-2 7h4v3q-4 3-10 2l-3-4 5-1-10-1v-7l2 2q4 3 9 3l3-3z"/><path fill="#e3e9ec" d="M137 1109h9v3l-1 1q-3 4-2 8l2 7 1 2-3 4-1-4v-2l-5 2 1-4-1-8z"/><path fill="#063f6a" d="m275 464 1 2h2l4 5q3 4 8 3h5l8-1q-2 5-5 5-9 2-19-2-4-3-6-8v-3z"/><path fill="#11324d" d="M179 1059h34v1l-33 1-5 13-2 4h-19l4-6v4h13l1-4 2-2 1-6h2z"/><path fill="#1a496b" d="M626 949h1v13h-97v-1l89-1h3l3-1v-9z"/><path fill="#1b5b85" d="M614 910h1v41h-27q-5 1-10-2h31l1-2 4 1z"/><path fill="#292e33" d="m279 417 2 1 4 3-1 2-2 2-2 3q-4 8-2 18l4 10 1 6-5-9-1-2q-4-11-1-23 1-4-2-8h3z"/><path fill="#f4f7f5" d="m144 1148 2 3-2 7-2 3-1 3h-5q-3-2-3-6h3v-9z"/><path fill="#e8edf0" d="m502 795 2 3-10 17-4 1 3-18 2 3h2l1-2 2 1z"/><path fill="#083c64" d="m442 352 91 1v1h-7l-4 1-6 1v-2l-3 1h-5l-2-1h-2v2h-7l-2-2h-15l-38-1z"/><path fill="#314d65" d="M324 203h19v18h-19zm1 1v16h17v-7l-1-4-1-4h-10z"/><path fill="#1a3f5c" d="M369 996h21v2h-7l-2 1-10 1-2 5-1 2-1 3c-3 8-3 8-6 11l-2 2 3-12 2-3z"/><path fill="#176594" d="M376 543h1v7l1 3 1 11v6l-1 11v12l-1 32h-1z"/><path fill="#123e5f" d="M457 106q9-1 17 3l-3 1 2 1 1 4q-6 2-12-2l-7-1z"/><path fill="#2b536d" d="M484 1110q7 0 12 2c-2 6-2 6-6 9l-1 2h-2v8h-1v-10h-2z"/><path fill="#eef1f3" d="M518 1150c6 0 6 0 9 3v8q-1 3-6 2h-3z"/><path fill="#32556e" d="M571 1109h6v22h-5v-6l-1-4-1-6 4-4h-3z"/><path fill="#bccad4" d="M269 1043h35q-3 3-7 2l-3 1h-23l-1 32h-1z"/><path fill="#1e364f" d="m210 486 2 1-1 3-3 1-1 1q-4 4-9 5l-2 1v7l3 1 2 5 1 3v5l-7-11-1-3-2-7q1-3 5-5l2-1 2-1 3-2z"/><path fill="#f0f3f3" d="M622 1147h2l2 4v7h-2v5l3 2-1 2-3-2-1 2v-5h-8v-3h6v-5h-6v-3h8z"/><path fill="#355169" d="M690 1109h5v22h-5z"/><path fill="#2b2c25" d="M541 506h9l7 1v2l4 2-2 1-5-2c-10-4-24-3-34 0l-7 5v6l5 5 2 2q-4 0-7-3-4-7-3-15l2 1h2l2-2c5-5 17-3 25-3"/><path fill="#215f82" d="M625 293q4 1 7 5l1 3 2 3c2 6 2 8 1 14l-3 1q-5-6-4-14l1-2-2-1-1-5-2-2z"/><path fill="#e3e8ec" d="m740 1151 3 2c0 6 0 6-2 10h-6q-2-1-2-6 0-4 2-6z"/><path fill="#36556c" d="M257 1147h5l3 6-2 2-1-1-1 2 2 1-1 10h-5z"/><path fill="#dfe3e7" d="m400 1105 7 5 4-1v22h-1l-1-6-1 6-6 1 4-6q2-8-2-14-5-4-11-3v-1h2z"/><path fill="#3389b7" d="M436 425h100v2h-19l-32-1h-49z"/><path fill="#264257" d="M299 1148h17v3h-6v16h-4v-17h-7z"/><path fill="#0f355b" d="M437 313h1q2 7-1 13h-3l-1 2q-2 6-8 7h-5v-3l4-3q10-6 13-16"/><path fill="#1e4e70" d="M521 631q2 8-2 14-1-5 1-11-6 2-10 8l-9 16h-1v-5h2l2-7h2l-1-4h3l1-9z"/><path fill="#2c4a63" d="m350 1116 2 9h-8l-1 6h-5l3-10 1-3 4-3z"/><path fill="#4e6679" d="m361 723 3 1-1 2v3l1 1v11l1 26h-2l-1-35-9 2q2-6 6-9z"/><path fill="#224f70" d="m447 700 10 3q10 4 22 4v2l10 1v1q-23 1-44-8l-2-2z"/><path fill="#26455d" d="M220 1147c9 0 9 0 12 2q4 4 3 9t-6 9h-3v-3l-4-1h3l3-1q2-4 1-9l-2-5-3 1z"/><path fill="#edf3f7" d="m307 1109 3 1 1 4 2 3v14h5-2l-2 1-1 2-2-1h-7l-2-2 2-1q4-2 5-7 1-7-3-12z"/><path fill="#e6ebf1" d="M765 1147h1v20l-2-1v-2l-5 1-1 2q-1-10 5-18z"/><path fill="#f5fafb" d="m192 1147 2 1 5-1v20l-4-2v-7l-8-4v-3h7l1-3z"/><path fill="#2d739b" d="M521 243c14 2 27 13 36 24l2 5-3 1v-5l-2-1q-4-1-6-6l-2 1-2 1v-6l-9-3-3 1 2-4-13-7z"/><path fill="#2b4e69" d="M247 1109h5v18l7 2v1c-8 0-8 0-11-2q-2-5-1-11z"/><path fill="#1c3f59" d="m546 1023 1 8v6l-1 3v7h2l1 2q3 12 12 22-10-6-15-18-2-8-2-17v-2z"/><path fill="#224763" d="m607 557 4 1 1 3c-15 16-15 16-25 17l-2-2h2l3-2 8-5v-2l3-1 6-5z"/><path fill="#ebeff2" d="M540 406h14v2h2l1 4 1 3-1 4-3-4-3 1-3-9h-8zm10 10 1 9-1 3v3h6v1h-7v-15z"/><path fill="#375368" d="M238 1147h11v1h-10v7h2v-4h6l1 4-1 1h-5v11h-4z"/><path fill="#1a3d63" d="M365 729q3 2 2 5v7l-1 23 4-1v-2l3-1 5-2v-3h7l2-3 4 1q-12 8-25 13l-1-4z"/><path fill="#1d4d70" d="M371 718q22-2 42 5l2 2h-8l-8-1v-1l-15-3-13-1z"/><path fill="#153655" d="m320 288 2 2-2 6h-2v3q0 5-4 9l-2 4-1-13 1-3 2-7 2 6 3-1z"/><path fill="#155b85" d="M509 240h4l3 1q6 0 10 5v3l-7 2-1-2-6 2-1-2-5-1v-1l7-1 1-3-5-2z"/><path fill="#184465" d="M495 774h1q1 22-7 42h-1v-17h2v-2l1-3v-3l3-6 1-6z"/><path fill="#ed9639" d="M610 537q2 8-3 15l-4 5h-4v2h-3l-1 4-3-4 2-2h3l-1-3 1-6 2-2 4 1-1 2 1 5q5-8 7-17"/><path fill="#0f3a5d" d="m566 433-5 3v2l2 1-1 2h-2l-1 2-2-1v11h-1v-5l-1-3v-3l-2-1h2l-4-8q8-2 15 0m-10 2v2l3-1z"/><path fill="#054876" d="M358 808q6 2 6 4l-6 1v4l-8 3h-3l-11 2v-2q5-3 12-3l3-1 2-4 2-2h3z"/><path fill="#ee7a1e" d="m565 492 1 3c5 2 5 2 10 1v2l2-1 6-1 1-2 2 1 1-3 1 6 2 4h-6q-9-3-20-2z"/><path fill="#114f76" d="m522 185 3 4-3 3-14-3v-2h-3v-2q9-2 17 0"/><path fill="#173a55" d="m514 1148 2 1h4q4 0 7 2 3 3 2 8l-1-2-5-6-5-1v13h7v1l-11 2z"/><path fill="#204560" d="m359 1061 2 6-1 3-3 8h-20l1-6 4 1-1 3h8l6-4 1-5h2z"/><path fill="#224762" d="m575 753 2 3 4 5h3l4 2 3 7 2 5 1 3 3 3v5l-6-9-14-18q-2-1-2-6"/><path fill="#28262e" d="m518 552 23 4-10 4h-3l-8 2v9q-4-3-3-5v-3l1-2v-2h8l1-3-3-1z"/><path fill="#2a435c" d="M436 1147h8l5 1v6q-5 4-10 1l-2 1z"/><path fill="#0c517b" d="M503 541h1v2q1 6 5 10t3 7v8q0 4 3 8l-1 2-6-6v-5c1-6 1-6-1-12l-1-1q-4-3-3-8z"/><path fill="#0e3a59" d="M407 186h-2l-1 5 5 1q-5 4-11 6l-3 2-3 1-2-1 2-3v-3h7v-2h3l-1-6z"/><path fill="#284e6a" d="m477 1157 3 1v2l11-1 2 8h-4l-1-4h-9l-1 4h-4z"/><path fill="#203951" d="m206 527 3 1 1 5 1 2v2h5v3l1 7h2l2 4v2l1 6h-2l-6-12-2-3q-4-8-6-17"/><path fill="#194b69" d="M636 310q3 6 2 13v8h-1l-1-8-1 2h-2l-2 14h-2l-1 2 2-9 1-11v-2h2l2-1 1-4z"/><path fill="#12577d" d="M557 210q6 0 11 3l3 5 2 2 1 6h-5l-1-5h-2l-3-3-3-2v-4l-3-1zm5 3 1 3h3v-2z"/><path fill="#dadfe5" d="m791 1154 1 4 3-3 8 5v3l-7-1-2 4-1-4h-8v-4h6z"/><path fill="#edeef1" d="m341 410 1 3 4 1 2-4 7 1v1l-6 1 2 2v3h-3v2l2 2h-6l-4-5-2-3-2-2z"/><path fill="#19384f" d="m232 1110 2 1-1 2v7l-1 3h6l1 3h-9l-1 5h-5z"/><path fill="#e3eaef" d="M179 1148h1v7h2l1-4v2q1 5 5 5l4 2v3h-7l-4 2-2-1z"/><path fill="#183a57" d="M378 1109h4v22h-4z"/><path fill="#163750" d="M185 1109h4v22h-4z"/><path fill="#db9a42" d="M320 445q3 4 2 7v3l-2 6-9 1-5-5-4-4-3-3 1-2 2 3 4 3 1 2 2 1 1 2 6 2v-3l-4-1 6-1v-5l1-3z"/><path fill="#023e69" d="m483 349 13 1v1h-36l4-1-1-3c5-3 14 1 20 2"/><path fill="#f9fafa" d="M419 287q5 1 6 4v6q-5 2-11-1v-5z"/><path fill="#364e63" d="M496 1147h8l5 1q2 4 1 8h-1l-1-5-2 1-1 4h-8v-3z"/><path fill="#34546e" d="M532 1109h5v20l-5-2z"/><path fill="#103d5f" d="M494 680h1l1 51h-1l-1-11-4-1-1 2 1-9 2 3q2-4 1-9v-2z"/><path fill="#1f5c81" d="M495 668h2l-1 12h-2v28c0 6 0 6-2 8l-1 1v-5h-3l-5-1-1-2 10 1 1-33h2z"/><path fill="#234f69" d="M568 215q11 6 18 17l-1 2-8-7v4l-1 3-7-8h5q-2-6-6-11"/><path fill="#f6f7f8" d="M163 1114h7v15l-6-3-1-6z"/><path fill="#204c69" d="M544 246c10 1 16 12 22 19l-1 2-2-2q-2-3-5-4l-5 1v-5l-1 1h-3l2-6z"/><path fill="#20364d" d="m249 463 1 4q-5 3-10 3v2q-3 3-7 3v2l-10 4v-3l2-1 8-5 3-1 3-2 3-2z"/><path fill="#144368" d="m485 386-1 5c-8 6-20 4-29 4v-1h9q6-1 11-5l3 1 1-3-2-2c5-1 5-1 8 1"/><path fill="#4f6980" d="M658 1147h13v4h-9v3h7v5h-6v3h8v1h-9v-5h6v-3l-1 2h-6q-2-2-2-5v-3l11 1v-2h-12z"/><path fill="#214059" d="m411 1053 6 11 1 3 1 3 3 8h-20l-1-3h17l-2-5-1-7h-2z"/><path fill="#145277" d="M326 822h8q-10 5-21 4h-29v-2h14z"/><path fill="#12577e" d="M576 226c8 5 8 5 10 8l1 7q-4 0-7-3v-4l-4-1z"/><path fill="#2688b7" d="M357 132h9v9h-9z"/><path fill="#264660" d="m342 1150 5 2c1 9 1 9-2 13q-3 3-7 2l-3-1v-3l7-2-2-10z"/><path fill="#254058" d="M319 1147h4v20h-4z"/><path fill="#f2f6f8" d="M300 1151h5l-1 15-4-1-2-4-1-3 1-5h2z"/><path fill="#1a3349" d="M535 1147h4v20h-4z"/><path fill="#1c3f5a" d="m639 1117 1 4 5 1v2l2 2h-10l-1 5h-5l1-4 1-3 3-6 2 2z"/><path fill="#265171" d="m479 741 2 3q-4 2-10 2l-14 1h-7l-1 2h-3v-2q15-6 30-5z"/><path fill="#1677a9" d="m513 496 3 1-1 2 3-3 2 1v5l-5 2-2 2-6 2-4 4h-2v2h-3l4-6 1-2 2-2h5q4-3 3-8"/><path fill="#395971" d="m331 163 18 1v16h-1l-1-13h-2v-2h-13v16h18v1h-19z"/><path fill="#21425b" d="m101 1110 5 3-2 1q-3 7-2 14v3q-5-4-5-9c-1-7-1-7 2-11z"/><path fill="#234259" d="M494 1114h1l1 10 2 4 2 3h-6l-4-6-4-5v-1l7-1z"/><path fill="#e8edf3" d="M246 1109h1v11l3 10-1 2h-9l1-2h4l-1-3-2-3-1-3v-6l3 2v4h2z"/><path fill="#3c3f3a" d="M582 524c6 6 5 16 6 23q-1 10-6 18h-1v-7l1-1q3-3 2-7v-8q1-7-2-14z"/><path fill="#dee6ea" d="M290 1105h4q1 5-2 8l-2 2-1 2-3-1v-2h-6v17h-1v-18h8v-3z"/><path fill="#2d556f" d="M601 745q9 7 11 18l-1 6q-3-5-4-11l-1-3-3-1-3-4z"/><path fill="#194261" d="M398 684h3q9 1 16 4l3 2 3 1 2 1 2 1h-7l-3-1q-17-6-35-6 7-3 16-2"/><path fill="#294a64" d="m801 1147 5 1-1 4h-5l1 2v5l-6-4v-6q2-2 6-2"/><path fill="#0e2d4b" d="m280 578 2 2-3 3-8 2-3 1q-8 3-16 1l9-3 9-3 9-2z"/><path fill="#176290" d="m333 553-6 3-2 1-3 1h-2l-25 7-2 1-6-1 19-6 3-1 14-4z"/><path fill="#eaeef1" d="m504 318 7 4q-3 4-8 5v3q-6-2-10-7v-2l7 3v2h2v-3z"/><path fill="#103d6b" d="M359 280q2 5-1 8-3 7-3 14l-1 2 1 15-3-1q-2-20 7-38"/><path fill="#183148" d="m436 1148 3 3v4h6v1h-5l-1 7h7v1h-8l-1 1 8-1 5-1-2 4h-12z"/><path fill="#dde6eb" d="M199 1147h14v3h2v-3h2l1 3q-2 5-5 6l-10-1v-4h9v-3h-13z"/><path fill="#0e314c" d="M188 996h19v2h-20l-1 6h-2l-1 2v2l-1 3-3 4 3-12 2-3q1-5 4-4"/><path fill="#17344f" d="M320 570h-2v2l-10 3-3 1q-7 3-14 1l3-1 1-2 8-1h2l1-2 5-1 3-1z"/><path fill="#224b67" d="M567 269q10 10 13 24v6q-3-4-3-9h-2q-4-4-4-10l1-3h-3z"/><path fill="#152942" d="m369 253 2 1q-1 5-5 7-4 3-6 9l-4 3v4h-3v2h-2q6-15 18-26"/><path fill="#14597e" d="M589 245q4 0 7 3v5l-1 3h3l-1 5-3-1v-4h-2q-4-5-3-11"/><path fill="#4a859f" d="M283 152h12v13h-12zm1 2v9h9v-9z"/><path fill="#1f3f5a" d="M162 1118h1c1 6 1 6-1 9q-4 5-9 5-6 0-9-4v-2l2 1q6 1 14-1z"/><path fill="#1e3e57" d="m775 1122 2 2q2 3 6 2l5-2 3 3q-4 4-9 4-5 1-8-3z"/><path fill="#31526f" d="M403 1115h2v2l1 4v-6h1v11q-3 4-8 4h-7l-1-2h2l2-1h3l3-2 1-4z"/><path fill="#2e4b63" d="m145 1112 3 1v12l7 2v1l-12-1-1-12z"/><path fill="#d1dce4" d="m703 1108 10 1v4h7v18h-1v-17c-8 1-8 1-10 5l-5-2-1-4h8l-1-3-7-1z"/><path fill="#20435c" d="M232 1063q6 7 6 15h-19l-2-5h3l1 2h13z"/><path fill="#9ebdcc" d="m366 219-6 10h-2v3q-1 6-6 11v-6h2v-5l-2-1 6-6 2-2q5-5 6-4"/><path fill="#274359" d="M175 1147h4v20h-5l1-3 2 1v-5h-2z"/><path fill="#244865" d="M232 1109h5l2 5-2 4 1 5h-6v-2l-1-6 2-4z"/><path fill="#d39a59" d="M574 510q13 1 23 9l-1 2-1-1q-8-6-17-7l3 2 3 8 1 2 2 11-4-10q-3-7-8-12z"/><path fill="#1a3b57" d="M689 1147h5v19h-3v-11h-3l-1 3v-6z"/><path fill="#2d4e67" d="m103 1109 12 1q4 6 1 11v2h-3l-1-8-10-3z"/><path fill="#e9edf0" d="m730 1109 1 2 3 4-2 6-2 4-3 7-2-12 2-1 4-3v-2h-7v-1h6z"/><path fill="#1f405c" d="m396 1108 8 3q3 5 2 10h-2l-1 2v-7h-2v-2h-4l-3-1h-5q2-5 7-5"/><path fill="#ebf1f5" d="m530 1108 2 1v16l-2 1-1 5h-1v-22z"/><path fill="#173b56" d="m198 1022 1 2 3 1 2 5 1 3 2 12h-20v-1h19l-2-4-2-5-1-3-1-3-1-2z"/><path fill="#a2c2d1" d="m305 347 2 3 5 2 2-2 2 11q-6-2-10-7l-2-2-1-1z"/><path fill="#246b94" d="m549 323 3 3q1 5-3 9l-1 1 1-5-3 2-7 4-2 2h-3v-2l4-3q7-4 11-11"/><path fill="#27445e" d="m409 1156 4 5q-1 4-5 6h-7l-4-1v-2h2l2-1h3l4-3z"/><path fill="#c7844e" d="M564 488h1l1 11h3q11-1 21 4l2 3-2-1-3-1-3-1-12-1h-9z"/><path fill="#286f97" d="m559 338 1 2q-2 6-8 8-12 5-25 4l2-2h5l2 1h2v-3h5l3-1 5-1 2-5 2 1-1 2z"/><path fill="#0a2849" d="M392 240h-2v3l-2 1-4 4v2h-2l1 3h-2l-2-3-4 1 1-4 6-4 2-1c5-3 5-3 8-2"/><path fill="#304f6a" d="m740 1147 7 4v11l-4 4-6-2 2-1q4-3 4-7l2-3-3-3h-2z"/><path fill="#f8faf9" d="m778 1114 7 1 1 3h-2v2l-3 3-2 1-3-2v-6z"/><path fill="#244b67" d="m678 1019 10 12 2 1 5 10h-5l-1-3-7-10-3-7z"/><path fill="#133858" d="M496 842h30v1q-16 3-32 3l1 4-3-1v-6z"/><path fill="#345168" d="M620 509h1l1 16v9l-2 6-1-3v-23h-2v-2h3z"/><path fill="#586c80" d="M609 1147h13v4h-8l-1 3-2-4-1 17h-1z"/><path fill="#14344d" d="m554 1109 5 1 1 4-3-3v7h1v13h-4z"/><path fill="#1a3a55" d="M378 786q-5 4-12 4h-2l-1 2q-6 5-14 3l-2-2 2-1 17-4 3-1c6-2 6-2 9-1"/><path fill="#0d3d6a" d="M381 254q0 5-5 9l-3 3-7 8-5 6-1-2 3-5 1-3 2-2h2l1-2q4-7 12-12"/><path fill="#254d6e" d="m700 1149 2 1v1h5l1 4-4 1h-2v3h5v1h-6v5h-2z"/><path fill="#183651" d="m496 1148 3 1h-2l2 2v5h6l-4 1-1 10h-4z"/><path fill="#12344f" d="m416 1147 5 1 2 4-5-1 1 2v13h-3z"/><path fill="#294259" d="m191 1147 2 1h2l-1 4-7-1v3l3 1-6 2-1-4v-4q3-2 8-2"/><path fill="#c3cdd4" d="M382 1109h1l1 15v-13l4 2-1 2v7l2 7-7 2z"/><path fill="#22465f" d="m589 1109 4 1 2 4 1 2 1 3 1 2 3 10h-5l-1-4 1 2h2l-1-2q-3-4-3-8l-2 2-3-9h2v-2z"/><path fill="#13577d" d="m592 733 3 3 1 2-6 1-4 3-1 1h-3l4-8zm-4 7 2 1h-3z"/><path fill="#d19244" d="M296 448q4 5 3 12 1 4-2 7l-5 1q-6-3-10-9l1-3 1 2 2 2 1 2c2 3 2 3 9 4z"/><path fill="#113f62" d="M520 414h24q3-1 5 2v9l-1 2v6l-2-1-1-11v-5h-2l-23-1z"/><path fill="#1b3857" d="M379 301h1v3q2 10 6 18v3l-2 1-2-5h-3v-3l-3 1 3-6-1-7z"/><path fill="#ccd4dc" d="M189 1109h1l1 16 3-1 1 2 6 6-7-1-2 2-7-1 4-1z"/><path fill="#1c3c54" d="M81 1120h10l-1 4 4 5v2h-5c-4-5-4-5-4-8h-3z"/><path fill="#1f3d55" d="M331 1109h5v22h-4v-12h1l1-8-4 1z"/><path fill="#133c5c" d="m123 1111 10 1v1h-7l1 5 5 2v1l-5 1v2q0 3-4 5z"/><path fill="#f0f2f4" d="m411 741 1 3q-3 6-9 7l-4 1-1-4 5-3 3-2z"/><path fill="#1c4861" d="M634 341v5l-1 3-2 3-3 4-2-1-5 1-9 7-2-1 2-2 3-3 2-1 7-7 1 2 3 2z"/><path fill="#e0e7ee" d="m415 289 2 1-3 1 1 5h12l3 6-2 6h-1v-10l-3 1-9 1-3-3v-6z"/><path fill="#1f3950" d="M556 1147h4v20l-5-1-2-5 5 4-1-7h-1z"/><path fill="#dce4e8" d="M121 1109h1v22l-3 1-2 2-3-2-4 1v-2l7-5 1-1h2z"/><path fill="#37556d" d="M320 1116h2l1 5-1 1 4 1v-2l3 1-3 6-4-1-3-6-1 10h-1v-13h3z"/><path fill="#19364d" d="M181 1112v1h-6v18h-4v-18q4-2 10-1"/><path fill="#21435b" d="M298 1111q5 0 9 3v2l3 1v6l-2 1v-5h-2l-1 3-1-3-2-5q-6 0-10 2-1-6 6-5"/><path fill="#c8d4db" d="M363 1060h32q4 4 3 9h-4v-6h-5v-1l-26-1z"/><path fill="#204159" d="M587 1009h4q6 0 11 2l3 5 2 3 4 6-1 3-1-2q-4-10-15-14-7-2-15-1 3-3 8-2"/><path fill="#f8f9fa" d="M426 280q4 1 4 4l1 2h-2l-3 1-1 2-2-1v-2l-3-1h2l-2-5z"/><path fill="#203c56" d="m375 200 2 1-2 2 1 2h-3v2l-3 1q-4 2-6 6l-5 1-2 1 7-9 3-2z"/><path fill="#234560" d="M136 1150h1l-1 8h-3l1 1 2 2 1 2 1 4h-5l-4-6 1-4 4-1v-2z"/><path fill="#e3ebf1" d="m569 1151 2 1 1 7h5l-1 4-8-1q-2-4-1-9z"/><path fill="#e4ecf0" d="m699 1119 9 4-1 4-3-1q-4 0-6 2l-2 2v-6h3z"/><path fill="#3a2e22" d="m520 528 20 3v2l-3 1q-12 1-23 5v-3l14-4v-1l-8-2z"/><path fill="#1f364c" d="m444 391 7 2 12 1h3l13-1q-7 5-16 4-10 0-19-4z"/><path fill="#2f506d" d="M749 1147h4q4 8 4 18l-2 1 3 1h-4v-2q0-7-4-13z"/><path fill="#2b5473" d="M589 1116h2l1 3 2-2 4 12-4-1v-3h-8z"/><path fill="#07426d" d="m326 463 2 1q-4 6-11 9-7 1-13-2h2v-2h9l8-1 2-4z"/><path fill="#1a608c" d="M480 294h1v3a46 46 0 0 0 6 28l-1 2-5-1v-5l-1-3-1-5v-12z"/><path fill="#0b304e" d="m362 219 2 1-2 2-17 19-1-2q1-5 4-5v-5l3-1 8-7z"/><path fill="#ecf2f6" d="M473 1147h1l1 5h2l2-4h2l-6 17-4-1 1-2 1-9z"/><path fill="#214c6b" d="M363 1058h34l1 6h2l2 6-1 2c-3-3-3-3-6-13h-32z"/><path fill="#234761" d="M611 1029q3 7 2 16l-3 7h-2v2q-1 4-6 5l3-7q7-10 6-23"/><path fill="#1e3347" d="m293 346 3 4q2 5 5 6l1 3 3 2 3 4 3-1 1 3-4 1q-11-8-16-20z"/><path fill="#f8f9fa" d="m394 318 3 2 3 1q0 4-3 7l-2 1-1-2-4-1q0-5 4-8"/><path fill="#d7dde4" d="M780 1147h1v20l-2-1v-4h-9v-4h6l1-4v7l2-1 1-7z"/><path fill="#e7ecf0" d="M256 1148h1v15l-2-1-4 1-2-5 2-1 1-7 2 4z"/><path fill="#dfe3eb" d="m614 1107 7 1-4 1v13q-5-4-7-10l4-1z"/><path fill="#114b78" d="m536 836 1 3q-8 4-18 4h-24l1-2h4l31-1v-2h5z"/><path fill="#eb7a1e" d="m533 561-5 5h-2l1 5-6-1 1-2v-1h-2l1-4 5-2 3-1z"/><path fill="#11446a" d="m596 458 4 1 2 5v2l1 2-5 2-1-4h-2l-1-4h2z"/><path fill="#e6edf1" d="M407 1151q3 4 2 9h-1v-5c-6 1-6 1-9 4l-1 2c0-7 0-7 2-10z"/><path fill="#e3e7ea" d="M230 1126h9v6h-9z"/><path fill="#15314a" d="m136 1121 3 1-1 7q-4 3-10 2h-6l4-2v-2l8-1z"/><path fill="#d0d7dd" d="M460 1106h6v2l4 1h-3l-6 3q-4 3-9 2h-6v3h6v1h-7v-5h12l2-4h2z"/><path fill="#26475e" d="m677 1043 5 3v3l2 1 3 4 5 8 2 3 4 4-1 3-16-21-1-2z"/><path fill="#012f59" d="M376 808v28h-1v-21h-4v-2l-4 2v-3l4-2 2-1z"/><path fill="#2c3737" d="m572 441 2 2 5 4q4 0 5 5l6 5-1 2-2-2c-6-6-15-13-24-13v-2l9 1z"/><path fill="#19628c" d="m496 267 7 1-6 5q-8 6-13 14l-1-2 2-4-3-1 2-1 3-1v-2l1-2 3-1q4 0 4-4z"/><path fill="#c8e1ec" d="M242 170h18v1h-16v18l-4-2 1-1 1-6v-6l-2-1z"/><path fill="#3f87a8" d="M246 172h13l1 17h-16l1-2 13-1v-13h-12z"/><path fill="#278cbb" d="M321 140h8l1 7h-9z"/><path fill="#1c374b" d="m162 1148 4 1h-2v7h2v11h-4z"/><path fill="#dde3eb" d="M323 1147h1l1 7h2l1 6 2 5-2 1-2-1v2h-3z"/><path fill="#233b51" d="m340 1147 5 3-1 2-2-1-8 1-4 4-1-6q5-4 11-3"/><path fill="#e9eff1" d="M734 1126h8l1 4-6 1-1 2h-2v2h-2c0-6 0-6 2-9"/><path fill="#dbdee2" d="M654 1112h1v3l3 6 7 3-2 3-8-1v-4h-2z"/><path fill="#3d5d77" d="M737 1114v2h2l2 7h-6v-2l-1 2-4 1c2-10 2-10 7-10"/><path fill="#46647b" d="m556 1110 5 3 1 6h-3v12l-3-2z"/><path fill="#1b4461" d="M177 1019h1l-1 11-4 1 1 2-2 8-1-3-2 2 4-13 1-2z"/><path fill="#242f38" d="M573 510q6 5 9 12l-1 2-1-3-4-1v3h-2l1 2v7l-3-6-2-3-1-5 4 2 2 2-1-4h2l-1-2z"/><path fill="#1a344c" d="m295 407 2 1-4 1-10 7-4 2-3 3-1-3c14-14 14-14 20-11"/><path fill="#155377" d="M544 200q7 1 13 4v3l-9 1-1-2 2-1h-6z"/><path fill="#355067" d="M674 1147q6 1 7 4l2 6h2l1-3 1 2-3 3-3-1-2-4-1-4-2-1-1 17 3 1h-4z"/><path fill="#284258" d="M268 1109h19v4h-19z"/><path fill="#1a3b54" d="M224 724h1v2l-2 29h-1v-22h-3z"/><path fill="#e0ae66" d="M564 443q6 1 7 3l-3 1v-2h-2v40h-1z"/><path fill="#0c406c" d="M407 243q-4 4-9 4l-11 6-4 2-1-2c7-5 16-13 25-10"/><path fill="#f0f3f6" d="m574 209 2 1-1 2-3 1 3 2v2l4 1-1 2-3 1-11-11 6 1h2z"/><path fill="#dbe1e7" d="m77 1146 10 1v1h-3l-5 2v9l-2 1c-4-5-4-5-4-8l2-1z"/><path fill="#1375a6" d="M499 517h1v2l4 10q3 2 2 5l-3 7v-3h-2l-1 4c0-5 0-5 2-8l1-2-1-2q-4-6-3-13"/><path fill="#244762" d="m528 332 1 3q-10 5-21 0v-2z"/><path fill="#d6dee4" d="M350 1147h1v20h-3l-1-1-2 2v-2l-2-1 1-1q4-4 3-10h1l1 7z"/><path fill="#e3eaef" d="M542 1147h1v20h-1l-1-6-1 5h-1v-17l2 2z"/><path fill="#dbe2e8" d="M602 1109h1v22l-4-3-1-2-1-3v-4l3 3q2-3 2-7z"/><path fill="#eaeff0" d="M157 1115q3 2 2 5 1 4-3 7h-7l-2-4h4v2h3l-1-4 2-1 2-2z"/><path fill="#e8ecef" d="m356 1109 1 4h6l-1 5h-2v-2h-2v2h-4q-2-3-2-8z"/><path fill="#3e617a" d="M121 1009v5h2l1 4h-3v-2q-7-3-15-3H96v-1h12z"/><path fill="#1c3449" d="M561 492h1v10l5 1-1 3-4 1 1 4 2 1v2l4 2-1 2-9-7 1-5 2-2-1-1z"/><path fill="#22455d" d="M441 123h1v4l1 3 2 6 4-3 1 3-4 4-2-1-1 2q-3-8-3-17z"/><path fill="#105078" d="M473 111q5 2 7 8l1 9-3-2v-7l-8-2v-3l4 1z"/><path fill="#e6edf4" d="M533 1145h5l1 2h-4v20l-2-3-3 2-1-2 2-3v-9h2z"/><path fill="#163450" d="M658 1148h12v2h-6l-5-1 2 7 7-1v3h-6l-1 4-1-2-2 1z"/><path fill="#193c56" d="M733 1121h2v2h6l1 3h-4l-4 1-2 4h-4l2-7h2z"/><path fill="#0f2a3e" d="M425 1109h4v22l-4-1h3l-1-8h-2z"/><path fill="#eff1f4" d="m686 1109 2 4-2 4 1 2-2 2-2-1-7-4 1-3h8z"/><path fill="#1c3e5b" d="m553 888 7 1v1l40 1v1h-35l-10-2z"/><path fill="#e09436" d="M337 439h1v7l-1 3q-5 2-9-2l-6-5q3 0 5 2l7 1z"/><path fill="#0c2744" d="M311 310c5 5 3 15 3 22v2l-3 2z"/><path fill="#f0f1f4" d="M415 1118q6 4 8 11l-3-1-1 2-4 1z"/><path fill="#154161" d="m127 1013 1 4-2 2v4q1 4-2 7l-7 4 3-3q4-6 2-13h2v-2z"/><path fill="#183b56" d="M547 829h1v3l1 6-8 2-2 1-11 1 10-4 4-4 4 1z"/><path fill="#1c3b5a" d="M344 794q-5 3-11 2v2h-20v-1l11-1 3-1z"/><path fill="#184c71" d="m437 750 3 2c-9 7-9 7-15 7q1-4 7-6l3-2z"/><path fill="#312c20" d="M301 411h13q7-1 13 3l3 1 4 4-1 3-1-3-4-2-2-1q-7-4-16-3h-10z"/><path fill="#aac1cd" d="m378 403 3 1h2l2 1v1l-11 2-4 1h-3l-3 1-5-1 1-2 6-1z"/><path fill="#185c86" d="m608 278 7 1 2 1 1 2h-2l1 3 5 2v2q-6-1-10-6l-4-2z"/><path fill="#142e48" d="M409 271h8v2h2l3 1 1 2-3-1q-11-3-22 1l-3-1q6-6 14-4"/><path fill="#e9f1f5" d="M464 185c22 0 22 0 31 2l-4 2h-7l-3-1h-6v-1l-11-1z"/><path fill="#e4eaef" d="m450 1151 1 3h3l3 13-3-1-1-2h-3v-3l-1-6z"/><path fill="#e4edf1" d="M233 1148h5v19h-1v-5h-3v-10h2z"/><path fill="#173751" d="M273 1148h5v18h-3l1-17h-2l-1 2z"/><path fill="#f7f9fb" d="m297 1114 1 2h2v6l-2 2h-3v-2h-2v-6z"/><path fill="#284c66" d="M562 1032h1v5l1 2 2 7 1 2q3 7 8 12-5-1-8-6v-2l-3-1-2-12z"/><path fill="#113856" d="M283 734q6 1 8 5l2 2 2 1-2 2-2-3h-8l1-2-5 1zm1 3 1 2Z"/><path fill="#1d3a53" d="m232 579 2 1v3q1 4 4 6h6l3-1h2l-3 2-2 2-8 1q-5-6-4-14"/><path fill="#0a2b4c" d="m325 408 8 1 2 4-4 3-9-5h3z"/><path fill="#e5ecf2" d="M462 1150q4 0 7 3v8q-2 3-5 2h-3v-1h5l-1-5h2v-3h-5z"/><path fill="#dee0e2" d="M96 1118h1v2l1 2v3l3 5q-4 3-9 3l-3-1v-1h5l-1-2 2-5z"/><path fill="#224761" d="M427 1112h1v18l-4 1-3-8 6-1z"/><path fill="#e3eaed" d="m784 1118 3 1 1 5q-3 3-7 3-2 0-5-3l1-2 4 1z"/><path fill="#214a69" d="m118 1066 6 7 1 2 8 1h7l1-5 4 6c-19 1-19 1-24-2q-3-4-3-9"/><path fill="#245677" d="m603 348 2 4h6l-3 8h-2l-1-3-4 1z"/><path fill="#e2ebf3" d="m468 116 7 4q2 5 1 11h-2v-5l-2-1c-4-5-4-5-4-9"/><path fill="#e2eaed" d="M192 1147h4l2 5-3 6-8-4v-3h7l1-3z"/><path fill="#2c4c64" d="m482 1147 5 1-1 11h-5l2-7-3-2z"/><path fill="#173953" d="m709 1124 1 5-1 2h-6l-5-2 2-4 3 1h4z"/><path fill="#1d3f58" d="M678 1126h2l4 4q-2 2-5 1h-3l-5-2v-3z"/><path fill="#d7dee6" d="M260 1109h1v10l-1 8-5 1-2-1v-4h7z"/><path fill="#123d5a" d="m314 1113 1 3 4 2h-2v13h-3z"/><path fill="#235374" d="M715 1110h14v2h-6l-1 18h-1l-1-17-5-1z"/><path fill="#265d7d" d="m635 334 2 2q1 4-2 8l-6 2-2-6 3-1 4-3z"/><path fill="#162a42" d="M392 298h1v2q0 9 5 17l2 4-3-3-2-1q-5-6-4-13v-3z"/><path fill="#124b6e" d="m530 190 5 1q3 4 3 7l-1 2-3 1q-4-3-4-7z"/><path fill="#0a3a5f" d="M446 120h3l-1 14-5-5q0-5 3-9"/><path fill="#0d3553" d="m157 1159 2 8-5-1-1-3-8-1q5-4 12-3"/><path fill="#123451" d="M776 1155v3h-6v5h8v3h-11l2-2-2-1 1-7z"/><path fill="#314b5c" d="m289 1147 5 1 2 6-6-1-1 3-2-6z"/><path fill="#194159" d="m156 1111 2 1 5 2v4l-1 3-2 6-3-2 1-2v-5l-1-3z"/><path fill="#0e507c" d="m518 873 2 1 17 3 1 7h-2v-5l-8-1v2h-2v-2l-5 1-1-3-2-1z"/><path fill="#07315c" d="M388 272h10v2h-2l-2 1-1 2-5 1-1 3-1-3-2-1 2-3h2z"/><path fill="#224660" d="M522 234q13 1 22 10h-7l-1-4-8-1v-3l-6-1z"/><path fill="#21445e" d="m401 187 1 5h-2v-2l-3 1-3 2-3 2-3 1-2-1v-2l6-3 3-2z"/><path fill="#dae1e7" d="m331 1154 2 1 1 5 7-1 1-5h1v7q-2 3-6 2h-4q-2-4-2-9"/><path fill="#31526b" d="M707 1118q6 2 6 4v6l-3 2-2-2v-5h-2z"/><path fill="#ecf4f9" d="m550 1106 3 4-1 2-1 9q1 6-2 10l-4 1v-2l2-2q4-4 3-11v-8l-4-1h4zm3 2h5l-4 2z"/><path fill="#ebf2f6" d="m697 1033 3 8v5h-2l-3-4-2-3-1-2 2-1v-2z"/><path fill="#1d3f5d" d="m446 383 7 2v2h-3l-1 3-5 1v2l-4-2v-2h4z"/><path fill="#d9e3ea" d="M396 200h3l1 2-3 5-7-2q0-6 6-5"/><path fill="#edf0f2" d="M749 1109h1v22h-2l-3-9 3-1v-8z"/><path fill="#2a5778" d="M735 1109h6v3l1 8-2-4h-3v-2h-2l-2 4z"/><path fill="#1d4764" d="m565 999 3 1h-2v2l-1 1 2 1v2l-9 1-5 4 6-8 2-2z"/><path fill="#194160" d="m356 816-4 3-4 1-3 1-9 1v-2q10-4 20-4"/><path fill="#1c4968" d="m223 756 4 8 4 12q-4-1-7-5z"/><path fill="#1a5279" d="M218 733h4v22h-1l-1-12h-1v-7h-2z"/><path fill="#16415f" d="M463 707h16v2l10 1v1q-13 1-26-3z"/><path fill="#1f4059" d="M587 578q-10 4-21 3v-3l11-1h4z"/><path fill="#02345e" d="M439 325q-3 9-13 12l-2 1q2-4 6-7l4-5z"/><path fill="#19496b" d="m535 301 1 9-5 1-2-9z"/><path fill="#244863" d="M465 108c10 1 10 1 14 5l5 9-1 3-1-4h-2l-1-2c-2-5-2-5-7-8l-7-2z"/><path fill="#0a2a44" d="M514 1148h1l1 14 1-12h1v13h7v1l-11 2z"/><path fill="#1b374e" d="M589 1148h2v8l1 2 1 9h-4z"/><path fill="#16344c" d="M397 1149v3l1 5v2l3 5h-5q-2-2-2-6 0-5 2-8z"/><path fill="#204865" d="M352 1149h2v2h2l1 5h-2v11l-3-2z"/><path fill="#e4e8ec" d="m493 1106 2 1v3l-13-1v2h-2l1 4h-2l-1 3-3-7 3-1 1-2 7-1q4 2 7-1"/><path fill="#1c6696" d="M516 656h1l-1 39h-1l-1-29v-8z"/><path fill="#dc9f4d" d="M609 505q5 7 3 16v15h-1v-17h-2z"/><path fill="#1b3e57" d="m558 410 2 1 4-1v4l4-1q-4 5-10 6z"/><path fill="#042d4f" d="m303 355 3 1v3h2l2 1h3l2 1 1 2h-2l-1 2h-5l-5-5z"/><path fill="#0f4669" d="m464 109 9 2 1 4h-8l-3-2z"/><path fill="#304d61" d="m290 1153 7 1 2 7-2 1-1-5h-2v2h-6z"/><path fill="#2d4d66" d="M272 1149h4l-1 17 3 1h-4v-8l-4-5z"/><path fill="#2c4b63" d="M146 1148h6v3l-2 1 2 7h-5l1-7-3-1z"/><path fill="#f2f9fa" d="M446 1114h12l-1 7-2-3h-2l-1 4v-5h-6z"/><path fill="#1a638f" d="M521 632h2l1 6h-2v2l-2 7v5h-2l-1 2v-11l2-1q3-4 2-10"/><path fill="#19577e" d="M521 631q2 8-2 14-1-5 1-11l-4-1-6 5-1-5z"/><path fill="#e5e8eb" d="M82 1123h3l3 5q-1 4-5 5l-6-1v-1h5z"/><path fill="#f4faf8" d="m148 1117 6 1v7h-3v-2h-4v-5z"/><path fill="#173f58" d="M589 393q1 3-2 5l-3 3-3 3-2 2-2-1 1-2-1-6 2 2 4 1-1-4h2z"/><path fill="#135176" d="M588 389v6l-3 2v-2l-3 1 1-5zm-8 7 3 1v3l-5-1v-2z"/><path fill="#192d48" d="m370 354 12 3 1-2 1 3 4 1v2l-8-1-2-1c-6-1-6-1-8-3z"/><path fill="#144764" d="M609 354v6l-1 2h-7l-2 6v-7q2-3 5-4l2-1v4h2z"/><path fill="#fafafb" d="M740 1153v6l-1 2-5-2-1-4z"/><path fill="#193a53" d="M533 1122h1l2 6 1-3 7 3 1 3h-7l-4-1q-2-4-1-8"/><path fill="#214d6c" d="M610 791h1q2 9-1 17l-4 1z"/><path fill="#ea8826" d="m516 513 2 1-3 4 5 2v4l3 1-1 2c-7-4-7-4-9-7q0-4 3-7"/><path fill="#e1a147" d="M595 468q5 4 6 10l2 3 1 3-2 1-2-4-2 1-2-3-2-2 3-3z"/><path fill="#223c56" d="m433 373 4 2-1 4-3-1 1 6h-3l-1-8z"/><path fill="#193c57" d="M449 175h6v2h-6l-4 1-4 1h-7q2-3 5-4z"/><path fill="#e6edf1" d="M593 1154c6 6 6 6 6 12l-3 1-1-5-1 5h-1z"/><path fill="#274154" d="M289 1115h1l1 5 2-2v12c-5-5-5-5-5-9z"/><path fill="#385d77" d="M636 1115h7l2 7h-6l-3-4z"/><path fill="#104a75" d="m374 884 2 3-1 2h-2zm-3 6 1 3-4 4-2-1zm-8 8 2 1q-3 4-8 4h-3z"/><path fill="#3d3a2e" d="M576 532q3 4 2 10v6q1 8-3 16h-3l3-7 1-8z"/><path fill="#07345b" d="m559 501 4 3-3 5h-3v-2l-4-1q3-5 6-5"/><path fill="#aac9d8" d="M476 132q0 7-6 10l-5-2c8-8 8-8 11-8"/><path fill="#234259" d="m183 1162 5 1 3 1h2v3h-9l-2-4z"/><path fill="#e9f0f3" d="m636 1156 4 11h-7z"/><path fill="#e9edf1" d="m539 1120 6 2-1 5h-6l-1-5h2z"/><path fill="#173e5a" d="m131 1037 3 1h2q-2 5-5 6l-6 2-2-1 1-2 6-1z"/><path fill="#183048" d="m194 501 2 1v3l3 1 2 5 1 3v5l-6-10-1-2z"/><path fill="#1e1e24" d="m334 422 4 1q5 10 3 21h-1l-1-3v-4l-1-2z"/><path fill="#093960" d="m440 383 5 1v2l2 1h-2l-1 3-3-1v-2h-4l-1-3z"/><path fill="#c4d5e3" d="M629 317h2v9l-1 8-3 2v-7l1-3z"/><path fill="#234b69" d="M468 162h1l1 12h6q-3 3-8 2l-1-5-1-3 1-5z"/><path fill="#1d3f59" d="m731 1155 1 2q2 4 6 7l5 1-1 2-10-1-1-6z"/><path fill="#183755" d="M735 1147h5v3l3-1c3 4 3 4 3 8l-1 2-3-5-3-3-6 2z"/><path fill="#183850" d="M472 1110q4 1 6 5v10l-2 2v-3h-2l2-10h-2z"/><path fill="#1e5576" d="M794 1110h12v2l-9 1v6l-2 1z"/><path fill="#f1f1f2" d="m200 1107-2 6-3 2-2 2-2-1v-6z"/><path fill="#1d4058" d="M628 1043h1q-1 13-9 23l-2-1 1-2 1-4h3v-3h2v-2l1-3v-3z"/><path fill="#154c72" d="M581 848v3l2 2-3 6-4-7v-3z"/><path fill="#1d5074" d="M508 790h1v7l-4 5-2 6h-1c0-7 0-7 2-11l2-2z"/><path fill="#e8f2f5" d="M486 712h4l-4 16h-1l-1-9 3-2 1-4z"/><path fill="#0e3e5e" d="M557 488h1v8l3 1v5l-5-1-1-8h1z"/><path fill="#e59637" d="M566 456h1v34l-1-2h-2v-3h2z"/><path fill="#1e506b" d="m626 296 2 1v5l3 1v2h-2l1 2v6l-3-7-1-2-2-5z"/><path fill="#153651" d="m710 1149 2 1v7l-4 2h-6v-3h2q3 0 5-4l1 4z"/><path fill="#f7f7f7" d="M222 1152h6l-2 9-4 1 1-3z"/><path fill="#e0e5e9" d="M622 1147h2l2 4v7l-4-1-1-2 1-2-2-1z"/><path fill="#273e53" d="M568 1147h6l5 2-1 3-3-1-8 1z"/><path fill="#2b465e" d="m407 1147 2 2-5 1-5 3-1 6h-1v-9q4-4 10-3"/><path fill="#d8e2ea" d="M126 1122h7l1 5h-8z"/><path fill="#f3f6f5" d="m104 1117 3 4-1 4 3 1v1h-5q-2-1-2-6v-3z"/><path fill="#dfe6ed" d="M487 1113h6l1 5-4 1h-3z"/><path fill="#d8e3e9" d="m396 1113 5 1v3h-3v-2c-5 3-5 3-8 8l1-8q2-2 5-2"/><path fill="#1d496a" d="M262 1111h2v18l-2 1-2-1 1-3 1-8z"/><path fill="#314f66" d="M701 1109h9l2 4q-5 2-11-1z"/><path fill="#254156" d="m575 753 2 3 7 7 3 5 4 5-1 2-12-14-2-2z"/><path fill="#344a5e" d="M302 403h16l5 2-8 1-4-1-9-1z"/><path fill="#e8ebee" d="m318 269 2 1-2 5-9 4-1-4 6-1 1-3h2z"/><path fill="#c8d6dc" d="M439 1158h7l1 4-5 1h-3z"/><path fill="#ced4d8" d="M203 1158h9l1 4h-5l-1 2h-2l-1-5v8h-1z"/><path fill="#233546" d="M83 1148q5 0 6 2l-1 5-3-1v-3h-3l-2 2-1-4z"/><path fill="#1f3b52" d="M624 1147h4l2 11h-3l-1-4-1-2z"/><path fill="#f7f6f4" d="M182 1109q3 3 2 8l-1 3-1-2h-4l-1 2v-5h4l-6-1v-1h7z"/><path fill="#f0f3f5" d="m664 1028 5 5-1 7-1 2-1 2h-1v-3z"/><path fill="#205476" d="m557 1007 2 3c-5 7-5 7-9 8l1-7z"/><path fill="#143754" d="m274 796 25 1v1h-8l-3 1h-4l-6 1-1-3z"/><path fill="#193950" d="m281 765 1 2h2l1 3 5 1v-2h2v4l-6 1-7-7z"/><path fill="#213f55" d="m336 746 11 7-1 4-2 1-1-2q0-3-4-5v-2l-3-1z"/><path fill="#17324a" d="M320 735q6 2 10 6l2 1 4 3-2 1-3-1-1-2-3-1v-2h-2l-3-1-1-2-3 2z"/><path fill="#173656" d="m335 561 2 1v2l2 1q-5 4-12 4v-3l5-1 1-3z"/><path fill="#1d3851" d="m335 411 9 11h-3l-1 2-1-6-4-2v-2h-2z"/><path fill="#0e3050" d="M289 415v2h-2v3l-5 1-2-2v-3q4-3 9-1"/><path fill="#173654" d="m312 277 1 6 1 3-4 3v-3l-3-1 1-2 2-5z"/><path fill="#1d3a52" d="m458 107-2 1v2q-4 4-7 3l-5 6-1-2 3-4 2-2q4-4 10-4"/><path fill="#2d4559" d="M476 1159h2v2h10v1h-4l-4 1-2 4h-4z"/><path fill="#dce5ea" d="m547 1155 7 9-4 1-1-2-2 4z"/><path fill="#1a3955" d="M645 1147h4l-1 5v3l-3 4-1-7z"/><path fill="#c4cacf" d="M199 1147h14v3h2v-3h2l1 3-4 4-3-1 1-5h-13z"/><path fill="#e2ebf3" d="m173 1147 2 1v11l-6-8 3-1z"/><path fill="#e0e7ed" d="m246 1122 2 4 1 2 1 2-1 2h-9l1-2h4l-1-2z"/><path fill="#25435c" d="M782 1109h2q3 0 5 3l-1 4h-2v-2l-3-1 1-3-10 3v-2q3-2 8-2"/><path fill="#104a76" d="M490 842h2v3l3 6 2 1-1 4v-2h-3v-3l-3 1-1-4v-5z"/><path fill="#1d567b" d="m598 796 2 1-2 10-2 1-3 4-2-1 1-2c4-5 4-5 4-11z"/><path fill="#1b4d73" d="M218 796h5q3 3 2 8l-3-1v-2l-5-1z"/><path fill="#0d476c" d="M607 486h5l2 6-2 2h-3v-4h-2z"/><path fill="#0d4469" d="M604 469h2v14h-2l-2-11h2z"/><path fill="#1e1812" d="m298 449 6 5-2 1-2-1v9q1 3-2 5l-3-1 1-1q3-4 2-10z"/><path fill="#122a45" d="m348 406 2 1 6 1v-2l4 2-1 2-4 1h-3l-4-2z"/><path fill="#0e213e" d="M353 337h3v7h3l2 6-3-3-2-1-4-4z"/><path fill="#286f98" d="M555 303h1v10l-1 4-1 3h-2l-1 3-1-4 1-2z"/><path fill="#152c44" d="M426 300h1q1 9-3 16l-3 3-2-1 1-2q5-7 6-16"/><path fill="#0c2b4d" d="M380 295v3l-1 4v2l1 11-3-1v-18z"/><path fill="#144a6a" d="m604 290 1 4h2l1-2 2 3-2 3-1 5v5h-1l-1-6-1-4z"/><path fill="#38526a" d="M489 287h1v3l-2 20h-1v-21z"/><path fill="#1d344b" d="m425 277 8 6 3 1q3 2 2 6l-1 2-2-2-8-9z"/><path fill="#2a455b" d="M246 1157q5 1 6 6l1 2 1 2h-5z"/><path fill="#3a617f" d="m782 1154 3 8h8l-1 3h-10z"/><path fill="#e9edef" d="m686 1128 1 2-1 2-5 1-10 1-1-3 1-2 3 1h7z"/><path fill="#244762" d="m561 1116 4 4v2h2l-1 4-3 1c-3-5-3-5-3-9z"/><path fill="#14344e" d="M546 1109h4v13l-4-4z"/><path fill="#1471a2" d="m504 554 5 3-2 14h-1z"/><path fill="#db974d" d="M592 506h6v3l1 3 2 1 1 5v5l-3-6z"/><path fill="#094574" d="m343 454 1 2q-7 6-15 6l2-4 6-2z"/><path fill="#1f4a64" d="M596 371v6l-1 2-1 1-4 4q1-8 6-13"/><path fill="#152d4a" d="m432 323 1 2-3 5-7 2v2l-3 1v-3l4-3q5-2 8-6"/><path fill="#123854" d="M502 231q10 0 19 2l-2 2h-5l-2-1h-2v-2h-8z"/><path fill="#264054" d="m505 1158 7 9h-5l-4-6z"/><path fill="#183751" d="M239 1148h10l-1 3h-7v4h-2z"/><path fill="#3a5a72" d="m418 1151 4 1 2 5-2 1-1-2-1 11-4-1h3z"/><path fill="#11334b" d="M100 1116h1l1 6v9c-5-5-5-5-5-8v-6h1v7h2l-1-2z"/><path fill="#dce5eb" d="M571 1119h1v12l-2-3h-6l3-1 2-5z"/><path fill="#284f6d" d="m473 1110 1 4h2l1 8-3-1-1-4-1-2v-2l-7-2v-1z"/><path fill="#204e6c" d="m163 1058 2 1-5 12h-2v-7l1-2h2z"/><path fill="#e9eef3" d="m420 735 1 2-2 5h-7v-3z"/><path fill="#283940" d="m593 565 2 1q-8 7-17 7v-2l2-1 3-1 3-1 5-2z"/><path fill="#176796" d="M354 548c-13 6-13 6-20 4l13-5z"/><path fill="#145783" d="m253 476 2 1-15 10-2-1 10-7 3-2z"/><path fill="#b7c5d0" d="M310 316h1v16l-2 6-1-7v-5h1z"/><path fill="#133652" d="m379 202 7 1-13 10-1-3 7-3z"/><path fill="#1e4869" d="M782 1149h2l1 6 6 1v2h-6v5h-1z"/><path fill="#1a334a" d="M227 1148v2l2 1h-3l-8 2-3-1q5-6 12-4"/><path fill="#f1f8f8" d="M82 1113h5l1 5-4 1h-2z"/><path fill="#143550" d="M200 1109h7l-4 2v2l-2 2q-4 3-4 8h-1v-9l4-2z"/><path fill="#3d3836" d="M576 510h10l6 1 3 6-2-1q-8-4-17-5z"/><path fill="#1a314b" d="m270 446 3 1v6l-5 3-3-1 2-2q3-3 3-7"/><path fill="#14344f" d="m328 1161 11 3 1 3c-7 0-7 0-10-2z"/><path fill="#3b556a" d="M283 1160h3v2h9v1l-8 1-1 3h-4z"/><path fill="#d8e5ea" d="M126 1151h6l1 4-4 1h-3z"/><path fill="#1b4564" d="M365 1149h1v16q-3 0-5-4l1-4v2h3z"/><path fill="#1e4864" d="m166 1148 3 3-1 6-5-1 1-7z"/><path fill="#e3eaed" d="m753 1144 2 2-1 2 4-1 1 3-3 4q-4-4-3-7h-4l-1 2v-3z"/><path fill="#153750" d="M494 1114h1l1 7-5-1v3h2l-1 4-5-5-1-3 7-1z"/><path fill="#265171" d="m364 1017 1 2-2 2-3 8h-4q1-7 8-12"/><path fill="#204159" d="m185 997 2 1-1 6h-2l-1 2v2l-1 3-3 4 4-12 1-3z"/><path fill="#13476c" d="M257 819v3h-9l-1-4q5-1 10 1"/><path fill="#104166" d="m372 808 2 1-9 5-3 1h-5l4-3 3-1z"/><path fill="#1f2833" d="m510 510 4 2v2l-1 7 5 5 2 2q-4 0-7-3-4-7-3-15"/><path fill="#0973a5" d="M441 426h23l-1 2h-15l-5 2v-3z"/><path fill="#1d638b" d="m532 338 1 3-5 1-3 1h-12l-1-2h7l3-1z"/><path fill="#214b64" d="m558 216 7 2 1 3h2l1 5z"/><path fill="#0e2f4e" d="m360 213 2 1-3 3-1 2q-4 4-9 3l3-3 2-2z"/><path fill="#35536a" d="m437 177-8 4h-3l-2 1-3-3q7-2 16-2"/><path fill="#dae2e9" d="M480 115h2v2h4l1 7-1 1-1 7h-1v-3l-1-3v-4z"/><path fill="#2b4357" d="M766 1147h12v3l-12-1z"/><path fill="#e0e5e7" d="m142 1123 1 2 3 5-3 4-1-4v-2l-5 2 1-3 4-1z"/><path fill="#1e435e" d="m461 1123 2 2 8 4v1l-8 1z"/><path fill="#254967" d="M547 1111h1v5l2 10-3 3-1-11 1-4z"/><path fill="#b8c7d3" d="M234 1115h2l2 8h-6z"/><path fill="#f6f6f7" d="M358 1116h2v2h2l-5 7-2-7h3z"/><path fill="#2b516d" d="m456 1109-1 4-1-1h-10v5h-1v-6z"/><path fill="#1f4c69" d="m387 752 4 1-4 3-3 2-5 2-2-4 5-1h3z"/><path fill="#0e4771" d="M612 495h3l-1 10-3-1v-8z"/><path fill="#064268" d="m548 351-1 4-2-1-7-1-2 1h-2l6-3 2-1z"/><path fill="#134e73" d="M607 344h2v8l-5 1v-7l2 1z"/><path fill="#2a415a" d="M414 231v2l2 1c-8 2-8 2-12 1l-2-1q5-4 12-3"/><path fill="#d1dde4" d="m440 1150 6 1-1 4h-6z"/><path fill="#e2e9ec" d="m407 1118 2 2v6l-1 3v2l-6 1 4-6 1-4z"/><path fill="#f0f4f5" d="m337 1116 3 1v2h2l-2 7-3-1z"/><path fill="#173e58" d="m165 1049 1 8-3 2-2 4q-2-5 1-8l1-3z"/><path fill="#174569" d="M362 792v1q-6 3-13 2l-2-2q8-3 15-1"/><path fill="#23587b" d="m515 766 2 4-2 5-4 2 1-9 2 2z"/><path fill="#16405f" d="m342 755 2 1-2 7-4 1 2-7h2z"/><path fill="#1e3d5b" d="m280 578 2 2-1 2-5 1-3 1h-2v-4l6-1z"/><path fill="#18699a" d="m372 541 2 2q-8 4-18 4l2-1 4-2 9-2z"/><path fill="#081d39" d="M400 415v1h-8v2h-10v-2z"/><path fill="#09335d" d="M385 324h2v2l1 2 3 1v3l-4 1v2h-3l1-2z"/><path fill="#c1d7e4" d="M612 291h2v2l1 3 2 1v3h-2l-1 6h-1z"/><path fill="#b6c4d0" d="M518 1150h5l-4 1 1 5v3l3 3 2 1h-7z"/><path fill="#0b2844" d="m438 1151 1 4h6v1h-5l-1 7h7v1h-8z"/><path fill="#f6f9f6" d="m461 1151 2 1-1 2h5v3l-4-1-1 2h-3v-5z"/><path fill="#36536a" d="m566 1148 3 1-1 5v3l-4 4v-8q0-3 2-5"/><path fill="#395974" d="M795 1149h2l1 6h3v4l-6-4z"/><path fill="#e8ebef" d="m480 1122 1 4h-2l-1 3-1 4-3 1-1-4 3-2 2-5z"/><path fill="#dde5e9" d="M293 1122h2v2l2-1 5 2-1 3-6-1z"/><path fill="#e9eff3" d="m755 1119 7 9-2 2-1-3-4-1z"/><path fill="#edf4f6" d="m613 1107 1 4-5 1-1-3h-5v-1c7-2 7-2 10-1"/><path fill="#194a6e" d="m573 857 4 1-1 5-4-1v2h-2v-5l2-1z"/><path fill="#214a6c" d="M545 847q-6 4-13 4v-2l-2-1 6-1 4-1z"/><path fill="#124f75" d="m589 815 2 2-1 2 1 3-4 2-1-4v-3z"/><path fill="#0a2e4d" d="m303 750 4 2v6l-7 5v-4l4-2z"/><path fill="#1e4b66" d="M216 736h3v7l-5 2z"/><path fill="#dde6ed" d="m478 738 3 1-3 4h-14v-1h2q7 0 12-4"/><path fill="#115682" d="M503 541h1v2q1 7 6 12v2q-4-1-7-6z"/><path fill="#ebedee" d="m211 540 4 6v2l1 2h-5z"/><path fill="#0a345d" d="m196 496 4 2-2 7h-2z"/><path fill="#ecedef" d="m263 452 4 2-8 4-2-2 1-3z"/><path fill="#14496c" d="M585 445q6 3 8 7l-4 2-3-1v-3h2l-1-1z"/><path fill="#bfd2e5" d="M299 303h2l-1 5v3l-2 3-1 4v4h-1q-1-10 3-19"/><path fill="#1b3653" d="m427 298-1 9h-1v-5l-9 1 4-2 2-2z"/><path fill="#20405b" d="m531 298 5 1v8h-1v-6l-9 2 4-2z"/><path fill="#19415b" d="m472 116 6 3v13h-1v-2l-1-3v-2l-4-7z"/><path fill="#2e5571" d="M731 1152h2l-1 13-3-3v-5l1-2z"/><path fill="#365771" d="M632 1154h3l1 5h-8l-1 2 1-5h3z"/><path fill="#b3bfca" d="M124 1147h9v1h-11v5l-9-2v-1h6l1-2z"/><path fill="#cdd9e2" d="M607 1118h2l3 6-3 2-1 5h-1z"/><path fill="#2a516d" d="M660 1119q6 1 7 3v5l-5-4-3-2z"/><path fill="#2f4a61" d="M305 1114h2v2l3 1v6l-2 1v-5h-2l-1 3z"/><path fill="#2e516b" d="m587 1109 4 1v2h-2v2l2 1-3 1-2 2v-7z"/><path fill="#1f5174" d="m556 1110 3 2-2 17h-1z"/><path fill="#194e74" d="m409 1050 3 1 1 10-4 1v-3l-1-6z"/><path fill="#195076" d="M184 1004q3 2 2 5l-2 2-1 3-2 2h-3z"/><path fill="#214f72" d="m390 997 2 4-2 3-1-5-4 2v-2l-3 1-6-1v-1z"/><path fill="#e5ecf0" d="m567 869-2 8-2-1-4 1-2-2 2-1 2-1 3-2z"/><path fill="#1e547c" d="m536 836 1 3c-8 4-8 4-11 4l-4-2 9-1v-2h5z"/><path fill="#e1e7ef" d="m253 823 16 3v2h-7l-2-2h-3l-3-1z"/><path fill="#154269" d="m488 799 2 1 1 5v3l-2 8h-1z"/><path fill="#0e537d" d="M422 760v7l-4 1-1-5z"/><path fill="#1d3952" d="M225 569h5v10l-4-6v-2z"/><path fill="#cf9a55" d="M586 554h1q1 7-4 13l-3 3-2-1 1-2z"/><path fill="#262c33" d="M511 539h2v3q0 6 5 10h-6l-1-9z"/><path fill="#2f3131" d="M525 507h6v1h-2q-8 1-15 5l2-4q4-3 9-2"/><path fill="#1b3d5a" d="m534 309 1 3-4 6-3-1v-2h2v-5l4 1z"/><path fill="#11293f" d="m504 290 2 1-2 4h-2l-2 14h-1q-2-11 5-19"/><path fill="#14385b" d="m301 288 7 1v3l-7 2z"/><path fill="#20455e" d="M542 285h2v2h2l1 6h2l-1 5-4-7-1-2z"/><path fill="#083459" d="M315 277q4 2 4 5h-3l-1 2-4-2z"/><path fill="#225575" d="M560 261q8 4 9 13l-2-2-5-4z"/><path fill="#eaecef" d="m382 240 3 1-6 5h-4l1-4 6-1z"/><path fill="#395269" d="m752 1154 2 1v2l3 1v7l-2 1 3 1h-4v-4l-1-3z"/><path fill="#355065" d="M219 1152v7h-2l-2 2-1-4v-3z"/><path fill="#d4e1eb" d="M702 1151h5l1 4-4 1h-2z"/><path fill="#d9e1e8" d="M89 1150q3 3 2 8l-4 2-1-4 2-2z"/><path fill="#f7fafb" d="M614 1151h7l2 6h-3v-3h-6z"/><path fill="#eaf3f8" d="M500 1151h5l1 4-4 1h-2z"/><path fill="#ecf4f9" d="M242 1151h5l1 4-4 1h-2z"/><path fill="#1e3a51" d="M151 1150q4 2 4 5v3l-4-1-2-6z"/><path fill="#1f4b6e" d="m676 1149 3 1v6h-2v9h-1z"/><path fill="#ecf2f7" d="m564 1145 4 2-6 7h-2v-3h2z"/><path fill="#e6ecec" d="M90 1121h5l-1 6-2 1-3-4z"/><path fill="#45657d" d="M81 1113h1v18h-1l-1-6-1-3v-7z"/><path fill="#1f3e57" d="m676 1112 2 1-1 3 4 2-1 3h-5l-2-2 1-3 2 3h2l-3-2z"/><path fill="#e9edf2" d="m636 1110 2 1-3 11q-2-3-2-8z"/><path fill="#255375" d="m117 1033-2 4H96v-1h10z"/><path fill="#1f4d6d" d="M120 997q6 0 8 4l2 2h-6v-2l-5-1z"/><path fill="#0e3250" d="m333 768 3 1-6 5-4-1 1-4 5 2z"/><path fill="#08335b" d="m235 580 3 1 1 8h-2v-2l-3-1v-5z"/><path fill="#123a5b" d="M546 493h1l1 6h5l1 3-9 1q-1-5 1-10"/><path fill="#28252b" d="m284 462 2 2 9 4v1h-11z"/><path fill="#12253d" d="M361 420v2q-6 3-13 1 6-4 13-3"/><path fill="#efeef2" d="m300 402-1 3-4 1-2 1h-2l-1-3z"/><path fill="#2f516b" d="m582 390 1 4-3 3h-3v3l-2-1z"/><path fill="#22334c" d="M349 281h1q0 8-3 14h-2l1-6 1-3z"/><path fill="#22435f" d="M525 286q-1 5-7 7l2-5-3-2z"/><path fill="#062947" d="m362 219 2 1-11 11-1-2z"/><path fill="#1f5677" d="M557 210q6 0 11 3v3l-6-3-1 2-1-3-3-1z"/><path fill="#1a3e57" d="M456 162h3c-1 9-1 9-4 12v-7z"/><path fill="#d0dde1" d="M126 1159h3q4 3 3 6l-5-1-1 3z"/><path fill="#d9e4eb" d="M242 1159h3l2 5-1 2-4 1z"/><path fill="#3c4b5b" d="M376 1156h9v3h-9z"/><path fill="#eaedee" d="M73 1152q6 1 6 4l1 2-3 2c-4-5-4-5-4-8"/><path fill="#dde4ed" d="m680 1146 3 4 3 3-1 4h-2l-5-10z"/><path fill="#334a5e" d="M220 1147c9 0 9 0 12 2l1 5-1-2h-2l-2-1-1-3-3 1z"/><path fill="#30485c" d="m581 1123 4 6-1 2h-5z"/><path fill="#1a3851" d="m244 1125 2 6h-5l-2-5z"/><path fill="#d3dde5" d="m196 1020 3 7h-2l-5 3 1-4 1-3z"/><path fill="#e8edef" d="m619 1002 3 1 1 6h-3l-4-5h3z"/><path fill="#175479" d="m584 761 4 2 2 7-2 1c-4-4-4-4-4-8z"/><path fill="#1c384e" d="M379 759q-3 4-8 5l-3 1-2 1v-2l4-1v-2q4-2 9-2"/><path fill="#24455c" d="m269 754 1 2 3 1 3 3v2l-4-1-4-5z"/><path fill="#235a7d" d="M601 745q5 3 6 7h-6z"/><path fill="#146897" d="m506 533-2 8-1-3h-2l-1 4 1-8z"/><path fill="#48371f" d="m597 513 4 5v7q-4-3-6-8h3z"/><path fill="#e88f2f" d="m550 510 13 3 1 2h-6v-2h-6v-2z"/><path fill="#163d5a" d="M549 357v2l-5 1-2 1-8-1 8-3z"/><path fill="#143a5e" d="m417 272 12 2-4 4-5-4z"/><path fill="#133452" d="m375 200 2 1-2 2 1 2h-3v2l-5-1z"/><path fill="#e5eaf0" d="m94 1155 2 1-1 9-3 1v-8z"/><path fill="#1d3c55" d="m612 1151 1 3h7v4h-6q-2-3-2-7"/><path fill="#cad6df" d="M601 1147h1v11l-5-5 1-1z"/><path fill="#274f6a" d="m681 1121 4 1 1 7h-3q-2-3-2-8"/><path fill="#eaedef" d="m399 1122 3 1-2 4h-7l-1-2h7z"/><path fill="#2c4f66" d="m326 1121 3 1-3 6-4-1 2-4h2z"/><path fill="#163b55" d="m293 1110 3 1-4 4 1 3-2 6h-1v-8q0-3 2-5z"/><path fill="#d7dde6" d="m677 1113 7 1-2 1v3l-6-2z"/><path fill="#e4e9ee" d="M798 1113h9l-4 1v2l2 1h-7z"/><path fill="#e8ecee" d="M417 1109h2v2l4 1v3h-2l-1 2-4-7z"/><path fill="#264966" d="m218 1025 4 8v2l1 2h-2l-1-5-3 1z"/><path fill="#2e5773" d="m376 683 1 2 7 1q-4 3-10 3l-3-2h5z"/><path fill="#223c47" d="M596 458v4h-2l1 4-5-5v-2z"/><path fill="#d2d7de" d="M267 436h1l2 16-2 1-3-6 1-2 1-7z"/><path fill="#0f3250" d="M551 438h3l1 3-7-1v8h-1v-7q0-4 4-3"/><path fill="#1c6089" d="m488 328 1 1 11 9h-2l-5-1-3-3-1-3z"/><path fill="#203e5b" d="m437 293 4 3v13h-1v-5l-1-3-2-5z"/><path fill="#29739e" d="m559 272 5 7-1 4-3-1-1-4h2l-2-3z"/><path fill="#1e5072" d="M533 274h4v2l1 2 3 1-1 3-1-1q-3-3-7-3z"/><path fill="#164f74" d="m545 247 6 3 1 3-7-1-2-2h2z"/><path fill="#172c46" d="m382 243 1 3-4 2v2l-4 1 1-4z"/><path fill="#11324e" d="m473 175 15 1-1 3-14-3z"/><path fill="#93bacd" d="m452 118 2 1-1 7h-3l-1-4z"/><path fill="#164a6c" d="M427 1112h1v11q1 3-2 5l-2-1 1-2z"/><path fill="#2a516b" d="m195 1117 3 1 1 11-4-4z"/><path fill="#1f4b6a" d="m239 1121 4 1v3l-9 1-2-1h-2v-1l6-1h2z"/><path fill="#d4dbde" d="m267 1109 1 4h7q-2 5-8 5z"/><path fill="#1f4862" d="m562 1070 9 5-4 1-6-4z"/><path fill="#2c5676" d="M596 994q-4 4-12 3h-6v-1l6-1 3-1z"/><path fill="#133757" d="M323 822h11l-9 3h-5l3-1z"/><path fill="#074d7a" d="m500 809 4 2-1 4h-6z"/><path fill="#16517a" d="m602 808 5 2-1 5h-4z"/><path fill="#1b4a6c" d="m240 785 4 1h2l4 3v2l-7-1v-2l-3-1z"/><path fill="#274560" d="m300 761-2 7-4 1q0-4 2-6z"/><path fill="#e4ebf0" d="M378 688v2l-2 1-4 3h-3l1-4z"/><path fill="#0e2a4b" d="M327 566v3l-7 2-2-1 3-3z"/><path fill="#162c42" d="m206 527 3 1 2 5 1 3v5l-3-6-2-3z"/><path fill="#2e4d67" d="m556 432 10 1q-3 4-8 3l-2-1z"/><path fill="#df9e3c" d="M285 420h3q-2 6-7 8 0-5 4-8"/><path fill="#183350" d="m332 408-1 2-2-1-6 1-1-4q5-1 10 2"/><path fill="#225879" d="m623 353 5 4-4 1-1-1-1 2h-5l3-4h3z"/><path fill="#314b60" d="M156 1159q4 3 3 8l-5-1z"/><path fill="#2f475c" d="M463 1147q-2 6-4 6l-4-2q3-4 8-4"/><path fill="#e8f2f7" d="m141 1118 1 8-3 1-2-8z"/><path fill="#d8e2ec" d="m415 1118 5 5-4 1v7h-1z"/><path fill="#2e526e" d="m610 1117 7 5-2 1-1 2h-2q-2-3-2-8"/><path fill="#d1dce5" d="m348 1115 2 1 1 6h-5z"/><path fill="#e2ebee" d="m462 1116 1 2 4 1-3 6-2-1z"/><path fill="#f1f1f0" d="M293 1116h3l1 8h-2v-2h-2z"/><path fill="#f7f7f3" d="m201 1116 3 1-3 7h-2v-7z"/><path fill="#244159" d="M677 1109c6 0 6 0 9 2l-1 3q-5-1-8-5"/><path fill="#173046" d="M363 877h1v7l-7 5z"/><path fill="#0a4f7d" d="m395 777 7 1-2 4-5-2z"/><path fill="#215373" d="m437 750 3 2-5 4-4-3z"/><path fill="#154b70" d="M580 743h4v5h-6z"/><path fill="#173b52" d="M580 565q1 3-2 5l-2 2-2-1 1-4z"/><path fill="#102843" d="m345 561 2 1v2c-7 2-7 2-11 1h3v-2z"/><path fill="#24373d" d="M605 554q1 4-2 8l-7 2 2-2z"/><path fill="#234c6d" d="m607 557 4 1 1 3-6 4-2-2 3-2z"/><path fill="#243f5a" d="m403 414 4 2-15 1q5-4 11-3"/><path fill="#283c52" d="M283 411q0 4-3 7l-2 2-1 1-2-3z"/><path fill="#1e4863" d="M587 384h2l1 4q-4 4-7 3z"/><path fill="#e0eaf1" d="m579 386 5 1q-1 4-6 7l-1-4h2z"/><path fill="#1f3750" d="M313 336h1l1 6v6l-2 2-1-5v-2z"/><path fill="#e0e5eb" d="m526 323-2 4-2-1-9-2v-1l5-1h3z"/><path fill="#14304a" d="M437 313h1v10l-4-1z"/><path fill="#e3eff3" d="M443 185h11v1h-2l-5 3h-5z"/><path fill="#133a56" d="M457 151h3v4l-1 3v2l-2 1z"/><path fill="#213a50" d="M644 1160v7h-4l-1-6 4 2z"/><path fill="#3f5463" d="M480 1162h9l1 2h3v3h-4l-1-4h-8z"/><path fill="#edeff0" d="M303 1159v7l-3-1-1-5z"/><path fill="#f3f4f4" d="m177 1146-5 5h-4l1-4q3-3 8-1"/><path fill="#2c4a62" d="m473 1123 3 1 1 4-3 2-3-2z"/><path fill="#13344c" d="M162 1118h1c1 6 1 6-1 9l-4 4-1-5h3z"/><path fill="#eff8f8" d="M127 1114h6l-1 4h-5z"/><path fill="#d0dae5" d="m207 1113-2 1-5 4-1 6h-1l1-10z"/><path fill="#17374f" d="m462 1110 4 2-5 5-2-4z"/><path fill="#204869" d="m156 1111 2 1 5 2-1 6q-5-3-6-9"/><path fill="#284f6c" d="m230 1056 3 8 1 2-1 4q-4-4-3-11z"/><path fill="#1b3c5b" d="m361 885 2 1q-4 6-7 6l-4-3 3-1z"/><path fill="#0c4976" d="M489 818h5l-2 6-4-2z"/><path fill="#0d4770" d="m234 809 6 2v2l-6 1-1-4z"/><path fill="#16415f" d="m215 787 2 6 2 1-2 4q-3-3-3-8z"/><path fill="#1c435e" d="m423 758 1 2-7 3-1 3-4-1 4-3 3-2z"/><path fill="#245274" d="m363 726-3 4h-2v2l-3-1 1-4q4-3 7-1"/><path fill="#286488" d="M482 709h6l5 2v3h-2v-2h-3l-5-1z"/><path fill="#2e5c7a" d="M447 700h3v4q-6-1-7-3z"/><path fill="#193c5e" d="m305 574-4 1-2 1-5 2-3-2h3l1-2z"/><path fill="#193b56" d="M618 539h2c-1 9-1 9-4 12l1-3-1-6h2z"/><path fill="#0d5f8e" d="m275 472 8 5-4 2-3-1z"/><path fill="#0e6393" d="M348 436h1v12l2 1-3 3z"/><path fill="#264e68" d="m571 408 2 3q-4 3-9 3v-3h6z"/><path fill="#1d3f59" d="m574 398 2 1-2 2-3 5h-5z"/><path fill="#e0e4e5" d="M483 393v4q-4 1-9-1 4-3 9-3"/><path fill="#203955" d="m303 360 4 2 1 3 3-1 1 3-4 1z"/><path fill="#b8d3e3" d="m612 344 1 4 5-1 1 2-7 4z"/><path fill="#e7eaeb" d="M423 326h6l-5 5-3-1z"/><path fill="#1a587b" d="M612 283h4l1 2 5 2v2q-6 0-10-6"/><path fill="#284e67" d="M576 234h4l1 2 4 7-1 2-6-8z"/><path fill="#eff1f4" d="M255 1159q3 3 2 8l-4-1-1-4h3z"/><path fill="#0d304b" d="M123 1154h1l1 5h1v7h-3z"/><path fill="#204362" d="M289 1150h6l1 4-6-1z"/><path fill="#e2e5ea" d="M748 1150h2l2 6-5-1z"/><path fill="#eff4f7" d="M644 1148c-1 8-1 8-3 10l-1-9z"/><path fill="#314c5f" d="M632 1126h5l-1 5h-5z"/><path fill="#25526e" d="m663 1126 3 3-1 2-9-2v-2l7 1z"/><path fill="#183247" d="m596 1122 5 9h-5l-1-4 1 2h2l-1-2z"/><path fill="#243f54" d="M356 1125h2l1 6h-5z"/><path fill="#e4eaf1" d="M659 1123h5v3l-5 1z"/><path fill="#29506f" d="m646 1120 4 2-1 4-10-1v-1l6-1z"/><path fill="#cdd9e1" d="M589 1116h2l1 6h-5z"/><path fill="#dce5ec" d="M498 1113h1l1 8-2 2-1 3-3-4 3-2z"/><path fill="#2a4b63" d="m334 1111-1 3-4 1-1 4h-2l3-7z"/><path fill="#d6dddf" d="m384 1111 4 2-1 2-1 5v4h-1z"/><path fill="#395b73" d="m570 1075 9 3q-5 2-10-1z"/><path fill="#eaedf1" d="m362 1061 4 1v4l-6 2z"/><path fill="#244a65" d="m372 1033 2 1-1 4-1 2-4 3 1-4v-3l1-2z"/><path fill="#e8ecef" d="m367 1000-2 8-1-2h-2v-4z"/><path fill="#244861" d="m570 867-5 5-3-2q3-5 8-3"/><path fill="#e0e5e9" d="m547 839 5 3h-6l-5-2q3-3 6-1"/><path fill="#193c59" d="M247 818v2l2 1q-6 0-10-4c5-1 5-1 8 1"/><path fill="#1f435e" d="m312 746 1 2-5 5-2-1q1-4 4-5z"/><path fill="#2c4559" d="m283 734 4 1q-2 5-8 5z"/><path fill="#234161" d="M365 680h1v2l1 3v3l2 4-4 1z"/><path fill="#173a50" d="m571 564 2 4-7 4-1-2z"/><path fill="#092243" d="m361 556 5 2q-5 3-11 3z"/><path fill="#27363c" d="M610 543h1l1 6-3 1-2 4-1-2 2-5 1-2z"/><path fill="#165580" d="M233 487v3l-6 4-4-1z"/><path fill="#162f4a" d="m249 463 1 4-7 2q2-4 6-6"/><path fill="#eb9422" d="m280 428 2 6-2 1-1 5v4h-1q0-9 2-16"/><path fill="#e1e9ec" d="m584 400 3 1-2 4h-3v2l-2-1z"/><path fill="#89aabb" d="m299 339 6 8-1 3h-2z"/><path fill="#2e3f54" d="m402 320 6 1 6 1v1h-8q-3 1-5-2z"/><path fill="#175e86" d="m633 311 3 1v6l-3 1z"/><path fill="#183558" d="M407 286h7l1 4h-4v-2h-8z"/><path fill="#1f6891" d="M531 266h6v5l-6-2z"/><path fill="#073f68" d="m400 190-1 4h-7q3-3 8-4m-11 5h2v2h-2z"/><path fill="#92b8c9" d="m459 139 10 1-1 3c-7-2-7-2-9-4"/><path fill="#9bc7db" d="m458 139 8 3v1h-7q-2 0-5-3l4 1z"/><path fill="#e4ebee" d="M500 1159q4 1 5 5l1 2h-2v-2l-4-1z"/><path fill="#dbe0e8" d="m133 1158 8 4-1 2-5-1z"/><path fill="#142f49" d="M203 1155h7v3h-7z"/><path fill="#c7d6df" d="m483 1153 3 3v3h-5z"/><path fill="#d9e6ea" d="M741 1151v2l-8 2q2-6 8-4"/><path fill="#d1d7dc" d="M445 1122h1l1 5v3l-2 4-2 1-2-2 1-2h3z"/><path fill="#e7edf0" d="m308 1126 2 4-1 2-5 1-2-2 2-1z"/><path fill="#1f435e" d="m703 1117 4 1 1 3-4 1-3-3z"/><path fill="#1e5274" d="m604 1110 3 1 1 4h-2l-2 4z"/><path fill="#e1eef4" d="M425 1114v9l-4-6z"/><path fill="#2a4558" d="M735 1109h5v2l-3 1-3 6q-1-4 1-9"/><path fill="#1a3f5c" d="m195 1019 1 2-2 5-1 2-1 2h-1q0-5 2-9z"/><path fill="#155882" d="M595 903h8l-5 5v-3h-3z"/><path fill="#ebeef1" d="m354 882 1 2-1 2 3-1v3l-6 2v-2h2l-1-2v-2z"/><path fill="#1d486c" d="m559 837 1 2 2 1-5 3-2-2z"/><path fill="#214964" d="m576 825 2 1-2 4h-2v2l-4 1q0-4 4-6z"/><path fill="#2d4c62" d="M225 807q4 0 6 3l1 2-1 2-6-5z"/><path fill="#2a526c" d="M213 781q3 5 2 10l-2 1z"/><path fill="#214f6f" d="M603 752h5l1 6-3-1v-2l-3-1z"/><path fill="#f2f3f4" d="m219 721 3 1v2l2 1-3 3-3-5z"/><path fill="#283f58" d="m262 457 1 3-7 2 1-4z"/><path fill="#15466c" d="m567 436 6 1 1 4h-2v2h-2l1-5z"/><path fill="#415165" d="m375 417 1 2h-13v-1z"/><path fill="#164c70" d="M593 381h2v2l-2 1v4l-4-1-1-4h2z"/><path fill="#e1ebf2" d="m615 368 2 1-3 4-7 1v-2l4-2 2-1z"/><path fill="#254a62" d="m610 371-6 3-3 3 1-6z"/><path fill="#ced7db" d="M353 344q4 2 7 6l-6-1z"/><path fill="#c9d7dd" d="m346 283 2 3-2 7-3-1z"/><path fill="#0f4e71" d="m559 212 3 4h-5l-1-2zm3 1 4 1-1 2-3-1z"/><path fill="#194362" d="M385 199h6v3l-5 2z"/><path fill="#284d67" d="m510 189 11 4q-5 1-10-1z"/><path fill="#1d5273" d="m473 111 3 1v5l-5 1-1-4 4 1z"/><path fill="#2b5272" d="m796 1163 9 1q-3 4-8 3z"/><path fill="#dee5e9" d="M475 1158h1l-1 7-4-1z"/><path fill="#f0f7fb" d="M785 1159h6l1 3h-7z"/><path fill="#1a4c6a" d="M553 1159h5v6l-3-1z"/><path fill="#d8e6ed" d="M148 1153h2l2 6h-5z"/><path fill="#153248" d="M242 1156h6l-2 1 2 6-3-2v-2h-3z"/><path fill="#f0f9f7" d="M136 1157h5v5l-4-1-2-3z"/><path fill="#cedce5" d="M290 1153h2l1 6h-5z"/><path fill="#274660" d="M258 1148h5l2 5-2 2-2-1-1-4z"/><path fill="#eff4f2" d="m290 1129 4 1v6l-5-4z"/><path fill="#eff4f8" d="M214 1126v9h-2l-2-5z"/><path fill="#1f415c" d="m101 1123 2 2 6 4-6 1q-2-2-2-5z"/><path fill="#f0f6f9" d="M82 1123h3q2 5-1 8l-2-1z"/><path fill="#d6dee6" d="m650 1122 5 5-3 4z"/><path fill="#2f5371" d="m134 1118 4 2-1 6h-3z"/><path fill="#e5e8e8" d="M456 1115h2l-1 6-2-3h-2l-1 4v-6z"/><path fill="#cbd7e0" d="M659 1113h6v2h-3l1 3-4-1z"/><path fill="#1b5578" d="m752 1110 3 1 1 5h-4z"/><path fill="#285572" d="M640 1110h3l1 4-7 1z"/><path fill="#f4f8f7" d="M612 1112h3l1 8q-3-2-4-5z"/><path fill="#e4ecef" d="m116 1067 5 8-3 1q-2-4-2-9"/><path fill="#2b4f69" d="M344 1057h3l-1 5-4 2z"/><path fill="#cdd8e3" d="m550 877 3 1 1 8q-3-2-4-6z"/><path fill="#2c4d69" d="m551 843 2 1-7 3v-2l-2-1q4-3 7-1"/><path fill="#254a63" d="m567 832 1 3-4 3-3-1z"/><path fill="#183952" d="m279 740-2 8h-3q1-5 5-8"/><path fill="#25405b" d="M263 586q-5 4-11 1 6-3 11-1"/><path fill="#155786" d="M263 570h9l-7 3h-4z"/><path fill="#185782" d="m213 499 2 1-3 3h-2l2 4-3-1-1-4z"/><path fill="#013763" d="m326 463 2 1q-2 5-8 7l-2-2h2l4-3 1-2z"/><path fill="#e29a41" d="m282 456 2 2 7 8-5-1c-4-5-4-5-4-9"/><path fill="#eff0f4" d="m576 409-1 5-3-1-1 3-1-4z"/><path fill="#28394d" d="m340 401 5 1 1 3 2 1-1 3-3-3-2-2z"/><path fill="#182f47" d="m436 375 4 3 2 1 4 5-7-4-2-2z"/><path fill="#102944" d="M315 365v2l2 4-5-1-2-3z"/><path fill="#b4c1cd" d="m426 296 4 6-2 6h-1v-10l-3-1z"/><path fill="#d4dfe7" d="m531 295 1 2 5-1-1 3h-2l-6 1z"/><path fill="#e5eaee" d="m295 291 2 1-4 7-2-4z"/><path fill="#162d46" d="M401 236h-2v2l-6 2v-3q4-3 8-1"/><path fill="#2a526e" d="m477 115 4 2q3 3 3 7l-2 1v-4h-2z"/><path fill="#0e4268" d="M454 112v4h-3l-1 2-3-1q6-6 7-5"/><path fill="#e9edf1" d="m326 1161 4 4-2 1-2-1v2h-2v-4h2z"/><path fill="#e1eaef" d="m196 1159 1 2h2v6l-4-2z"/><path fill="#1b364a" d="M142 1160q3 3 2 7h-4z"/><path fill="#cee0e7" d="m81 1160 4 2v3l-4-1z"/><path fill="#123955" d="M163 1156h3l-1 8h-2z"/><path fill="#294b68" d="m507 1155 2 3h-2l-1 2-5-1v-2z"/><path fill="#f7fbfd" d="M213 1153h1v9q-3-3-4-7h2z"/><path fill="#133048" d="M486 1151q4 4 4 9l-4-2z"/><path fill="#274d6e" d="M709 1148q3 3 2 8l-2 1v-5l-2-1v-2z"/><path fill="#436077" d="m201 1149 11 1v1h-9l-1 4z"/><path fill="#dfe6ec" d="m138 1148 1 2h2l-3 7-2-1v-7z"/><path fill="#1c3a54" d="m133 1148 3 1-2 7-2-1v-6z"/><path fill="#e6eaee" d="M622 1146v1h-13v-1q7-3 13 0"/><path fill="#0d3251" d="M132 1120v1l-5 1-1 5h-1l-1-7z"/><path fill="#dfebf5" d="m641 1116 4 6h-6z"/><path fill="#d7dee1" d="M182 1109q3 3 2 8h-2v-3h-7v-1h7z"/><path fill="#c0cdd3" d="m163 1109 1 4h7v1h-9l-2-3z"/><path fill="#c5d0d7" d="m356 1109 1 4-4 3-1-6z"/><path fill="#e7eaeb" d="m550 1106 3 4-2 2-1-3-4-1h4zm3 2h5l-4 2z"/><path fill="#edf0f2" d="m510 1105 5 1v3h-5z"/><path fill="#194969" d="M610 1068h5l-2 4-5-1z"/><path fill="#1b3f5d" d="m548 879 3 1 1 6-1-2h-4z"/><path fill="#274257" d="m355 729 3 3v-2l3 1-1 2-7 1z"/><path fill="#134466" d="m438 697 6 1v3q-6-1-7-3z"/><path fill="#226087" d="M516 656h1l-1 12h-1l-1-5v-5z"/><path fill="#eceef1" d="m241 593-1 4h-4v-2l-2-1z"/><path fill="#1c3e59" d="m601 571-6 4-2-1v-3z"/><path fill="#ce9346" d="m599 557 4 1-4 4h-3v-3h3z"/><path fill="#18314a" d="M219 551q4 3 3 8h-2l-2-6z"/><path fill="#e9eff4" d="m553 495 2 1v4l-6-1v-3l4 1z"/><path fill="#1d7daf" d="M398 427h14l-2 3h-2v-2h-10z"/><path fill="#152c4a" d="M382 416v2l3 1h-9l-1-2z"/><path fill="#eaf1f6" d="m601 378 2 1-5 8-2-1z"/><path fill="#032c54" d="m319 366 5 2-3 3h-2v-2h-2v-2z"/><path fill="#1a3b52" d="m561 353-6 4-3-1q4-5 9-3"/><path fill="#215b7b" d="m626 347 3 4-1 3-5-2z"/><path fill="#24455c" d="m541 322 2 1-3 5-4-1z"/><path fill="#173f5e" d="m500 273 4 4-6 2z"/><path fill="#094673" d="M407 264q6-1 11 3l-12-1z"/><path fill="#1d334f" d="m369 253 2 1q-1 5-5 7 0-6 2-7z"/><path fill="#063d62" d="M381 199h4l-1 5-4-1z"/><path fill="#a6c5d1" d="M456 117q1 5-2 10-1-4 1-9z"/><path fill="#132f48" d="M193 1159h3v5l-4 2v-5z"/><path fill="#0f3452" d="m477 1159 1 2h10v1l-6 1-5 1z"/><path fill="#f1f3f4" d="M494 1155v5l-3 1-1-5z"/><path fill="#dee4e9" d="m450 1151 1 3h3l-2 4-3-1z"/><path fill="#16344d" d="M635 1148v2l3 6h-5z"/><path fill="#c6ced6" d="m252 1150 2 4 2-1v4l-5 1z"/><path fill="#23445c" d="m635 1147 4 1v5l-4-1z"/><path fill="#2e4255" d="M760 1147h4l-2 5-2-1-2 2z"/><path fill="#283e51" d="M645 1147h4l-1 5-4-2z"/><path fill="#2f4759" d="m416 1147 5 1 2 4-7-2z"/><path fill="#d3dce2" d="m401 1147-2 2-5 4-1-4q3-2 8-2"/><path fill="#275676" d="M789 1127q-3 3-7 3h-3q4-4 10-3"/><path fill="#324656" d="m210 1124 4 2-2 4-3-3v-2z"/><path fill="#e1e6ec" d="M147 1123h4v2l3 1v1h-5z"/><path fill="#c6d0d5" d="M96 1118h1l1 9-5 2 1-2z"/><path fill="#f2f4f5" d="m705 1122 3 1-2 2-6-1v-2z"/><path fill="#2f4d67" d="M343 1116h3l1 4-5 1z"/><path fill="#dfe7ee" d="m324 1115 3 1-2 5-3-3v-2z"/><path fill="#dbe1e8" d="M296 1113h6v3l-2 1-5-2z"/><path fill="#e0e5e6" d="m212 1112 3 1-1 4-3 1-2-2h2z"/><path fill="#1a3851" d="m111 1110 5 2-2 5q-4-4-3-7"/><path fill="#234964" d="m212 1111-4 2-6-2v-1q5-2 10 1"/><path fill="#eef4f7" d="m425 1104 1 2 3 3h-7l1-4z"/><path fill="#eff3f8" d="m153 1073 2 2-2 3-5-1 3-3 2 1z"/><path fill="#254a66" d="m177 1062 2 1-2 7h-3l1-6h2z"/><path fill="#154b74" d="m219 1032 3 7-4 1z"/><path fill="#b7c6d1" d="M122 1019h1c0 8 0 8-2 11h-2l1-4h2z"/><path fill="#e2e7eb" d="m403 1025 4 1-3 5-2-2z"/><path fill="#e1ebf0" d="M568 1020h2l-4 9v-6z"/><path fill="#0f3a5a" d="m397 1017 2 1 1 6-3-2-2 2-1-3z"/><path fill="#1a3c55" d="M362 1014h2l-1 6-2 1-2 2q0-5 3-9"/><path fill="#2e4c68" d="m395 1010 3 7-3 1-1-7z"/><path fill="#d9e2e9" d="m392 1001 4 1v8q-3-4-4-9"/><path fill="#245073" d="M525 849h4l1 2 3 2-7 1z"/><path fill="#1f435c" d="m590 843 1 2-5 5v-5z"/><path fill="#eff3f2" d="M554 836v5h-6z"/><path fill="#185179" d="M353 812h3v2l2 1v2l-6-2z"/><path fill="#13507c" d="M508 790h1v4l-1 3v2l-2 1q-1-5 2-10"/><path fill="#27465d" d="M290 769h2v4l-6 1v-3h4z"/><path fill="#122c48" d="M288 578v2l-8 1 2-1v-2z"/><path fill="#e3e7eb" d="m618 547 3 2-2 5h-3z"/><path fill="#11355b" d="M212 537h4v8l-2-1z"/><path fill="#042d53" d="m522 501 5 1-3 1v3h-4z"/><path fill="#264966" d="m555 493 5 8h-4z"/><path fill="#e89631" d="m317 457 3 4h-4v-3l-4-1z"/><path fill="#dfe6eb" d="M565 415v3l-3 3-2 1-2 1v-4z"/><path fill="#113457" d="m352 404 5 1-1 3-4 1z"/><path fill="#96bbca" d="m332 369 2 1v6l-2 1-1-7z"/><path fill="#223754" d="M382 317c4 5 4 5 4 8l-2 1z"/><path fill="#163756" d="m380 289 2 4-3 6h-1z"/><path fill="#1e344d" d="m398 288 2 1-2 4h-4z"/><path fill="#e6edf1" d="m542 287 4 8-4-1z"/><path fill="#1f5d80" d="m592 245 5 5-1 2-4-1z"/><path fill="#1c3c57" d="M522 234c7 1 7 1 9 3l1 1-4 1v-3l-6-1z"/><path fill="#334858" d="m134 1162 4 3v2h-5z"/><path fill="#e0e8ea" d="m264 1160 5 5-5 1-1-5z"/><path fill="#dceaf3" d="m166 1156 4 4h-3v7h-1z"/><path fill="#1b3651" d="m132 1158 3 4-3 3-2-5h2z"/><path fill="#dbe2e6" d="m141 1154 3 1-2 7h-1v-5l-2-1z"/><path fill="#e1e9ed" d="m336 1150 4 1 2 3-4 1z"/><path fill="#18354b" d="m168 1152 4 3-1 3-1-1-1 2v-2l-1-2-2-1h2z"/><path fill="#194160" d="m742 1149 4 4-1 6q-3-4-3-10"/><path fill="#e6f0f3" d="M629 1150h3v6l-1 2z"/><path fill="#e6edf0" d="M571 1150q6 0 8 4h-6v-2z"/><path fill="#39556c" d="m249 1148 3 1-2 2v5l-3-1v-6z"/><path fill="#203e57" d="M749 1147h4l1 5-5-2z"/><path fill="#0f3652" d="m198 1125 2 1 8 2v1l-8 1z"/><path fill="#29455f" d="m700 1125 3 1 1 3-5 1z"/><path fill="#2e536d" d="M292 1118h1l1 7-3 2q-1-4 1-9"/><path fill="#d5e5f0" d="M737 1116h2l1 6h-4z"/><path fill="#eeeff4" d="m778 1114 2 3-1 3h-3z"/><path fill="#284660" d="m378 1109 4 1-2 6z"/><path fill="#dbe5ee" d="M82 1113h5l1 4-6-2z"/><path fill="#295571" d="M612 1072q-4 3-9 3v-2q4-3 9-1"/><path fill="#284558" d="M107 1050h2l1 6h2v2q-3 0-5-4l-1-3z"/><path fill="#e1ecf3" d="m124 1046 4 1 1 6q-4-3-5-7"/><path fill="#1b3348" d="M76 996h12v1h-4l-3 1-4 2z"/><path fill="#14537d" d="m554 902 11 1q-3 3-7 2l-3-1z"/><path fill="#e2eaef" d="m598 833 1 6-4 1zm-4 7v3Z"/><path fill="#eceef3" d="m319 826 2 1h2v1c-8 1-8 1-11-1z"/><path fill="#214e6f" d="m318 822 5 1-1 3-7-1z"/><path fill="#0c4871" d="M223 797q3 3 2 7l-3-1-1-4z"/><path fill="#275778" d="M610 791h1l1 9-3-1z"/><path fill="#274f6f" d="M382 782v3h-2l-1 3-3-2z"/><path fill="#15547c" d="m598 781 1 3 2 1-3 6z"/><path fill="#e4ebf2" d="m380 780 4 2-8 3z"/><path fill="#e3e9ec" d="m304 759 4 1-1 3-4 1-1-3z"/><path fill="#412b1a" d="m298 449 6 5-6 1z"/><path fill="#224563" d="m579 441 6 1 1 3-5-1z"/><path fill="#18324d" d="m336 395 7 1-3 1-1 3-3-3z"/><path fill="#092946" d="M330 375h2l3 5-1 2-4-3z"/><path fill="#253e59" d="m321 370 3 1v3l-7-1z"/><path fill="#092b51" d="m306 285 4 1-1 4h-4z"/><path fill="#e9eef2" d="m494 284 2 2-2 4h-3z"/><path fill="#20445d" d="m567 269 5 5v3h-3z"/><path fill="#142c45" d="m321 265 2 4-2 5-2-1z"/><path fill="#255167" d="m586 234 5 5-1 2-3-1z"/><path fill="#1c5e80" d="M578 228q5 2 8 6l-1 2z"/><path fill="#295877" d="m528 188 4 2h-2v2l4 1-4 1z"/></svg>
